<svg viewBox="0 0 336 336" fill="none" xmlns="http://www.w3.org/2000/svg"><mask id="a" style="mask-type:alpha" maskUnits="userSpaceOnUse" x="0" y="0" width="336" height="336"><rect width="336" height="336" rx="22" fill="#F5F5F5"/></mask><g clip-path="url(#clip0_788_48953)"><path d="M227.385 134.869v84.48c-.011 4.096-1.643 8.021-4.54 10.918-2.896 2.896-6.822 4.529-10.918 4.54H150.4c-13.202-.037-25.853-5.298-35.188-14.634-9.335-9.335-14.596-21.985-14.634-35.188v-61.527c.014-4.095 1.648-8.019 4.544-10.915 2.895-2.895 6.819-4.529 10.914-4.543h85.615c.369 6.815 3.168 13.273 7.889 18.202 4.721 4.929 11.052 8.004 17.845 8.667z" fill="#1677FF"/><path d="M141.219 162.962c8.164 0 14.782-6.618 14.782-14.782s-6.618-14.782-14.782-14.782c-8.163 0-14.781 6.618-14.781 14.782s6.618 14.782 14.781 14.782zM205.093 146.18c-.134-.2-.287-.387-.458-.556l-11.804-11.815c-.326-.354-.721-.639-1.16-.837-.44-.198-.914-.305-1.396-.315-.482-.01-.96.077-1.407.257-.448.179-.854.447-1.195.788-.341.34-.61.746-.79 1.192-.181.447-.269.926-.26 1.407.009.482.115.957.312 1.397.197.439.481.835.834 1.162l5.75 5.738h-20.15c-.485-.027-.972.046-1.428.213-.457.168-.875.426-1.228.761-.354.334-.635.737-.828 1.184-.192.447-.291.928-.291 1.415 0 .486.099.968.291 1.415.193.447.474.849.828 1.184.353.334.771.593 1.228.76.456.168.943.24 1.428.214h20.15l-5.75 5.749c-.626.679-.966 1.575-.946 2.5.019.924.395 1.805 1.05 2.458.654.653 1.536 1.027 2.46 1.045.925.017 1.82-.324 2.498-.952l11.837-11.848c.34-.326.612-.717.799-1.15.187-.433.286-.898.292-1.37-.019-.717-.25-1.412-.666-1.996zM198.23 174.57h-17.193c-3.416 0-6.185 2.77-6.185 6.186v17.192c0 3.417 2.769 6.186 6.185 6.186h17.193c3.416 0 6.185-2.769 6.185-6.186v-17.192c0-3.416-2.769-6.186-6.185-6.186zM157.416 185.577h-20.149l5.738-5.738c.332-.331.595-.725.775-1.159.179-.433.272-.897.272-1.366 0-.469-.093-.934-.272-1.367-.18-.433-.443-.827-.775-1.159-.331-.331-.725-.594-1.158-.774-.434-.179-.898-.272-1.367-.272s-.933.093-1.367.272c-.433.18-.827.443-1.158.774l-11.837 11.837c-.332.331-.596.725-.775 1.158-.18.433-.273.898-.273 1.367s.093.934.273 1.367c.179.434.443.827.775 1.159l11.837 11.847c.328.34.721.612 1.155.8.435.187.902.286 1.375.291.472-.004.938-.103 1.371-.29.433-.188.824-.46 1.149-.801.333-.332.597-.727.777-1.161.18-.435.272-.9.272-1.37 0-.47-.092-.936-.272-1.37-.18-.434-.444-.829-.777-1.161l-5.738-5.738h20.149c.914-.051 1.773-.449 2.402-1.114.629-.664.979-1.544.979-2.459s-.35-1.795-.979-2.459c-.629-.665-1.488-1.063-2.402-1.114z" fill="#fff"/><path d="M230.325 77.7998c-7.574-.0232-14.849 2.9551-20.232 8.2832-5.383 5.3281-8.437 12.5719-8.491 20.146v1.767h10.276c4.096.012 8.021 1.644 10.918 4.541 2.896 2.896 4.529 6.821 4.54 10.917v11.411c.873.088 1.767.131 2.673.131 3.801.09 7.581-.579 11.121-1.968 3.539-1.389 6.766-3.469 9.492-6.119 2.726-2.65 4.896-5.818 6.384-9.316 1.488-3.499 2.263-7.26 2.28-11.062.017-3.801-.723-7.5688-2.179-11.0811-1.455-3.5123-3.596-6.6992-6.298-9.3744-2.702-2.6751-5.909-4.7849-9.436-6.2058-3.526-1.421-7.301-2.1246-11.102-2.0699h.054z" fill="#AFBBD2"/><path d="M227.391 123.458v11.411c-6.793-.663-13.124-3.738-17.845-8.667-4.721-4.929-7.52-11.387-7.89-18.202h10.277c4.096.012 8.021 1.644 10.917 4.54 2.897 2.897 4.529 6.822 4.541 10.918z" fill="#1677FF"/><path d="M237.489 83.2386l-21.578 22.7894c-.039.043-.067.095-.081.152-.014.057-.013.117.002.173.016.057.045.108.085.151.04.042.091.073.147.091l13.963 3.796c.046.013.089.034.126.064.037.03.067.067.088.109.022.042.034.088.037.136.003.047-.005.094-.022.139l-6.992 19.069c-.022.074-.019.153.009.225.028.072.079.132.145.172.066.04.143.057.22.048.077-.008.148-.042.204-.096l21.545-23.073c.04-.043.068-.095.081-.152.013-.057.011-.116-.005-.172-.017-.056-.047-.107-.089-.148-.042-.041-.094-.07-.15-.084l-13.702-3.742c-.045-.012-.086-.034-.122-.063-.036-.029-.066-.065-.087-.106-.022-.041-.034-.085-.038-.132-.003-.046.003-.092.018-.135l6.763-18.8623c.03-.0739.032-.1558.007-.2312-.025-.0755-.076-.1397-.144-.1813-.068-.0417-.148-.0582-.226-.0466-.079.0116-.151.0506-.204.11z" fill="#fff"/></g><defs><clipPath id="clip0_788_48953"><path fill="#fff" transform="translate(48 48)" d="M0 0h240v240H0z"/></clipPath></defs></svg>