<svg viewBox="0 0 336 336" fill="none" xmlns="http://www.w3.org/2000/svg"><mask id="a" style="mask-type:alpha" maskUnits="userSpaceOnUse" x="0" y="0" width="336" height="336"><rect width="336" height="336" rx="22" fill="#F5F5F5"/></mask><g clip-path="url(#clip0_776_66453)"><path d="M209.13 208.721c-.008 7.141-2.851 13.986-7.903 19.033-5.053 5.046-11.901 7.88-19.042 7.88h-73.418c-3.048.024-6.062-.633-8.8228-1.923-2.7611-1.29-5.1996-3.179-7.1376-5.531-1.9379-2.352-3.3265-5.107-4.0644-8.063-.7379-2.957-.8066-6.041-.201-9.028.6057-2.987 1.8703-5.8 3.7017-8.236 1.8314-2.436 4.1834-4.432 6.8844-5.843 2.7007-1.411 5.6827-2.202 8.7287-2.314 3.045-.112 6.077.457 8.874 1.665.608-3.696 1.828-7.265 3.611-10.56h34.735v12.513h-18.044v5.684h59.073v-5.684h-18.044v-12.556h18.219c3.928 2.407 7.173 5.783 9.423 9.804s3.43 8.552 3.427 13.159z" fill="#00B8FF"/><path d="M178.059 198.273h18.044V204H137.03v-5.683h18.044V185.76h-34.746c2.722-5.068 6.693-9.357 11.535-12.463 4.842-3.106 10.397-4.925 16.139-5.285 5.741-.361 11.48.75 16.672 3.225 5.193 2.476 9.669 6.236 13.003 10.923 6.414-1.081 13.002.198 18.546 3.6h-18.219l.055 12.513z" fill="#0056FF"/><path d="M236.124 102.92v47.204h-.731c-4.527-.038-9.009.89-13.149 2.722-4.139 1.831-7.841 4.524-10.858 7.898-3.018 3.375-5.281 7.353-6.64 11.671s-1.782 8.876-1.24 13.37h-7.233c-5.543-3.402-12.132-4.681-18.546-3.6-3.334-4.687-7.81-8.447-13.002-10.923-5.193-2.475-10.932-3.586-16.673-3.225-5.742.36-11.296 2.179-16.139 5.285-4.842 3.106-8.812 7.395-11.535 12.463H99.651c-.6886 0-1.3489-.273-1.8359-.76-.4869-.487-.7604-1.147-.7604-1.836V102.92c.0138-.671.2857-1.311.7591-1.786.4735-.475 1.112-.75 1.7827-.767H233.527c.682 0 1.335.268 1.821.745.486.478.764 1.127.776 1.808z" fill="#1677FF"/><path d="M236.126 150.117v33.044c.001.341-.065.679-.195.995-.13.316-.321.603-.562.844-.242.241-.528.433-.844.562-.316.13-.654.197-.995.195h-30.022c.705 6.09 3.146 11.849 7.032 16.591 3.886 4.742 9.053 8.266 14.886 10.154 5.833 1.887 12.086 2.058 18.013.492 5.927-1.567 11.279-4.804 15.418-9.326 4.14-4.523 6.891-10.14 7.928-16.183 1.036-6.042.313-12.255-2.082-17.898-2.396-5.644-6.363-10.48-11.43-13.931-5.066-3.452-11.018-5.375-17.147-5.539z" fill="#AFBBD2"/><path d="M236.128 150.117v33.043c.001.342-.065.68-.195.996-.13.315-.321.602-.562.843-.242.242-.529.433-.844.563-.316.13-.654.196-.995.195H203.51c-.541-4.495-.119-9.052 1.24-13.37s3.622-8.297 6.64-11.672c3.017-3.374 6.719-6.067 10.858-7.898 4.14-1.831 8.622-2.759 13.149-2.722.24 0 .491 0 .731.022z" fill="#0F57D2"/><path d="M223.633 187.638c2.88 1.628 6.061 2.653 9.349 3.011.079.007.159-.002.234-.027.075-.025.145-.065.203-.119.059-.053.105-.118.137-.191.032-.073.048-.151.048-.23v-5.248c0-.08-.018-.159-.052-.231-.034-.073-.083-.137-.145-.189-.061-.052-.132-.09-.209-.111-.078-.022-.158-.027-.238-.014-15.272 1.996-14.77-15.524.077-15.535.073.002.146-.011.214-.038.068-.026.13-.066.182-.117.053-.051.095-.111.125-.178.029-.067.045-.139.046-.212v-3.895c0-.147.059-.289.163-.393.104-.104.246-.163.393-.163h2.793c.074-.002.148.012.216.039.069.027.132.068.185.12.052.052.094.114.123.182.029.068.043.141.043.215v4.048c.002.137.054.27.146.372.093.103.219.168.356.184 3.049.302 6.039 1.036 8.88 2.182.073.031.139.077.193.135.054.058.095.127.12.202.026.075.036.155.029.234-.007.079-.031.156-.069.225l-1.767 3.273c-.064.122-.171.216-.3.262-.13.047-.272.043-.398-.011-2.099-.865-4.298-1.462-6.546-1.778-.08-.01-.162-.002-.239.022-.077.025-.148.065-.209.118-.06.054-.109.119-.143.193-.034.073-.052.153-.053.234v3.971c.001.08.019.159.053.231.034.073.083.137.144.189.061.052.133.09.21.112.077.021.158.026.237.013 16.516-2.094 15.153 16.2-.098 16.637-.145.005-.282.066-.383.169-.102.104-.16.242-.163.387v3.916c0 .074-.014.148-.043.216-.029.068-.071.13-.123.182-.053.051-.116.092-.185.119-.068.028-.142.041-.216.04h-2.793c-.147 0-.289-.059-.393-.163-.104-.105-.163-.246-.163-.394v-3.927c0-.142-.054-.279-.151-.382-.097-.104-.231-.166-.373-.174-4.246-.277-8.387-1.444-12.152-3.426-.07-.037-.13-.088-.178-.15-.048-.062-.083-.133-.101-.209-.019-.077-.021-.156-.007-.233.014-.077.045-.151.089-.215l2.182-3.273c.073-.118.187-.204.32-.243.133-.038.276-.025.4.036zm3.491-10.855c.142 2.749 3.567 2.771 5.978 2.531.139-.011.269-.075.362-.178.093-.104.143-.239.14-.378v-4.746c0-.076-.015-.153-.046-.223-.031-.071-.076-.134-.132-.186-.056-.052-.123-.093-.196-.118-.072-.025-.149-.035-.226-.029-2.487.207-5.509.676-5.836 3.338l-.044-.011zm10.909 13.964c8.204-.164 8.837-8.433-.087-7.145-.133.02-.254.088-.342.19-.088.101-.137.231-.138.366v6.022c-.001.084.016.167.051.243.034.077.085.145.148.2.063.055.138.095.218.119.081.023.165.029.248.016l-.098-.011zM163.287 149.807c.402.041.808-.012 1.187-.153.379-.142.719-.37.995-.666.633-.632 1.222-1.287 1.844-1.931l14.214-14.618c.561-.496.911-1.189.978-1.935.067-.747-.154-1.491-.618-2.079-.248-.297-.553-.54-.897-.716-.344-.177-.72-.282-1.106-.311-.385-.028-.772.021-1.139.145-.366.124-.703.32-.992.576-.676.574-1.3 1.205-1.866 1.888-3.869 3.941-7.738 7.88-11.607 11.814-1.091 1.091-1.178 1.091-2.269 0-1.364-1.309-2.706-2.618-4.102-3.884-.273-.262-.596-.469-.949-.607s-.73-.204-1.109-.196c-.379.008-.753.091-1.1.244-.347.152-.66.372-.922.647-.273.263-.488.581-.63.933-.143.352-.21.729-.198 1.108.013.38.104.752.269 1.094.166.341.4.645.69.89.502.524 1.091 1.015 1.56 1.517 1.876 1.789 3.731 3.578 5.618 5.345.265.305.597.544.97.699.372.155.776.222 1.179.196z" fill="#fff"/></g><defs><clipPath id="clip0_776_66453"><path fill="#fff" transform="translate(48 48)" d="M0 0h240v240H0z"/></clipPath></defs></svg>