<svg viewBox="0 0 336 336" fill="none" xmlns="http://www.w3.org/2000/svg"><mask id="a" style="mask-type:alpha" maskUnits="userSpaceOnUse" x="0" y="0" width="336" height="336"><rect width="336" height="336" rx="22" fill="#F5F5F5"/></mask><g clip-path="url(#clip0_788_48947)"><g filter="url(#filter0_d_788_48947)"><path d="M226.289 124.121v-2.793h2.695c-.017.112-.017.226 0 .338v2.455c.016.184-.006.37-.065.545-.059.175-.153.336-.278.473-.125.136-.277.245-.446.32-.169.075-.352.113-.537.113-.185 0-.368-.038-.537-.113-.169-.075-.321-.184-.446-.32-.124-.137-.219-.298-.278-.473-.059-.175-.081-.361-.064-.545h-.044z" fill="#1677FF"/></g><g filter="url(#filter1_d_788_48947)"><path d="M226.287 133.922v-2.76c-.017-.184.005-.37.064-.545.059-.175.154-.336.278-.473.125-.136.277-.245.446-.32.169-.075.352-.113.537-.113.185 0 .368.038.537.113.169.075.321.184.446.32.125.137.219.298.279.473.059.175.08.361.064.545v2.455c0 .35.139.686.386.933.248.248.584.387.934.387h3.196c.331.03.638.182.862.428.224.245.349.565.349.897 0 .332-.125.653-.349.898-.224.245-.531.398-.862.428h-3.48c-.484.004-.963-.088-1.411-.27-.448-.182-.855-.452-1.198-.793-.343-.341-.615-.746-.8-1.193-.185-.447-.28-.926-.278-1.41z" fill="#1677FF"/></g><g filter="url(#filter2_d_788_48947)"><path d="M231.93 127.633c0-.351.138-.688.386-.937.247-.249.583-.391.934-.394h7.843c.184-.016.37.005.545.064.176.059.337.154.473.279.137.125.246.277.32.446.075.169.114.352.114.537 0 .185-.039.368-.114.537-.074.169-.183.321-.32.446-.136.124-.297.219-.473.278-.175.059-.361.081-.545.064h-7.887c-.342-.011-.667-.155-.905-.401-.238-.247-.371-.576-.371-.919z" fill="#1677FF"/></g><g filter="url(#filter3_d_788_48947)"><path d="M244.245 134.935v2.651h-3.153c-.184.017-.37-.005-.545-.064-.175-.059-.336-.154-.473-.279-.137-.124-.246-.276-.32-.445-.075-.17-.113-.352-.113-.537 0-.185.038-.368.113-.537.074-.17.183-.321.32-.446s.298-.22.473-.279c.175-.059.361-.081.545-.064h3.153z" fill="#1677FF"/></g><path d="M219.182 176.932h25.091v29.88c-.003.71-.287 1.389-.79 1.89-.503.501-1.184.782-1.894.782H184.36v12.917h18.546v5.858h-60.917v-5.858h18.622v-12.949h-21.349v-24.491c.001-.812-.157-1.616-.467-2.366-.309-.751-.764-1.433-1.338-2.007-.573-.575-1.254-1.031-2.004-1.342-.75-.311-1.554-.471-2.365-.471h-32.4v-54.774c0-.709.281-1.389.782-1.89.502-.501 1.181-.783 1.89-.783h108.273v47.858c-.014 1.005.17 2.003.541 2.936.372.933.925 1.784 1.626 2.504.701.719 1.538 1.293 2.461 1.689.924.396 1.916.605 2.921.617z" fill="#1677FF"/><path d="M252.576 88.3672h-33.393c-1.007.0113-2.001.2216-2.926.6187-.925.397-1.762.973-2.464 1.6949-.701.7219-1.253 1.5753-1.624 2.5113-.371.9359-.552 1.9359-.535 2.9424v25.1995h14.607v2.793c-.017.184.005.37.064.545.059.176.154.337.279.473.125.137.276.246.446.32.169.075.352.113.537.113.185 0 .367-.038.537-.113.169-.074.321-.183.445-.32.125-.136.22-.297.279-.473.059-.175.081-.361.064-.545v-2.454c-.016-.112-.016-.226 0-.339h12.578c.71 0 1.391.282 1.894.783.503.501.787 1.18.79 1.89v10.909h-3.066c-.184-.016-.369.005-.545.064-.175.059-.336.154-.472.279-.137.125-.246.277-.321.446-.074.169-.113.352-.113.537 0 .185.039.368.113.537.075.169.184.321.321.445.136.125.297.22.472.279.176.059.361.081.545.064h3.164v39.349h8.335c2.021-.034 3.947-.869 5.354-2.321 1.407-1.452 2.18-3.403 2.151-5.424V96.0799c.021-2.0178-.759-3.9618-2.167-5.4069-1.408-1.4452-3.332-2.2742-5.349-2.3058zm-28.091 8.2036c-.006-.5286.197-1.0383.565-1.4182.367-.3799.87-.5994 1.398-.6109h18.851c.539 0 1.055.2138 1.435.5943.381.3806.594.8967.594 1.4348 0 .5382-.213 1.0543-.594 1.4348-.38.3805-.896.5943-1.435.5943h-18.851c-.527-.0086-1.03-.2257-1.398-.6039-.368-.3782-.571-.8867-.565-1.4143v-.0109zm16.603 32.3672c.185.017.37-.005.546-.064.175-.059.336-.154.472-.279.137-.124.246-.276.321-.445.074-.17.113-.352.113-.537 0-.185-.039-.368-.113-.537-.075-.17-.184-.321-.321-.446-.136-.125-.297-.22-.472-.279-.176-.059-.361-.081-.546-.064h-7.887c-.331.03-.638.183-.862.428-.224.245-.348.566-.348.898 0 .332.124.652.348.897.224.245.531.398.862.428h7.887zm-7.636 6h-3.174c-.351 0-.686-.139-.934-.387-.247-.247-.386-.583-.386-.933v-2.454c.016-.185-.006-.37-.065-.546-.059-.175-.153-.336-.278-.472-.125-.137-.277-.246-.446-.321-.169-.074-.352-.113-.537-.113-.185 0-.368.039-.537.113-.169.075-.321.184-.446.321-.124.136-.219.297-.278.472-.059.176-.081.361-.064.546v2.76c-.002.481.092.959.276 1.404.183.445.453.85.794 1.191.341.34.745.61 1.191.794.445.184.922.277 1.404.276h3.48c.331-.03.638-.183.862-.428.224-.245.349-.565.349-.897 0-.333-.125-.653-.349-.898-.224-.245-.531-.398-.862-.428z" fill="#C8D1E8"/><path d="M241.088 134.932h3.164v-10.909c-.003-.71-.287-1.39-.79-1.891-.503-.501-1.184-.782-1.894-.782h-12.589c-.017.112-.017.226 0 .338v2.455c.017.184-.005.369-.064.545-.059.175-.154.336-.279.473-.124.136-.276.245-.445.32-.17.074-.352.113-.537.113-.185 0-.368-.039-.537-.113-.17-.075-.321-.184-.446-.32-.125-.137-.22-.298-.279-.473-.059-.176-.081-.361-.064-.545v-2.815h-14.694v47.858c-.03 2.022.744 3.973 2.151 5.425 1.407 1.452 3.333 2.286 5.354 2.321h25.091v-39.349h-3.142c-.184.016-.37-.005-.545-.064-.175-.059-.336-.154-.473-.279-.136-.125-.245-.277-.32-.446-.075-.169-.113-.352-.113-.537 0-.185.038-.368.113-.537.075-.169.184-.321.32-.446.137-.124.298-.219.473-.278.175-.059.361-.081.545-.064zm-7.636 2.651h-3.48c-.482.001-.959-.093-1.405-.276-.445-.184-.85-.454-1.19-.795-.341-.34-.611-.745-.795-1.19-.183-.446-.277-.923-.276-1.405v-2.76c-.016-.184.005-.37.064-.545.059-.175.154-.336.279-.473.125-.136.277-.245.446-.32.169-.075.352-.113.537-.113.185 0 .368.038.537.113.169.075.321.184.446.32.124.137.219.298.278.473.059.175.081.361.064.545v2.455c0 .35.139.686.387.933.247.248.583.387.933.387h3.175c.331.03.638.182.862.428.224.245.348.565.348.897 0 .332-.124.652-.348.898-.224.245-.531.398-.862.428zm-.186-8.651c-.33-.03-.638-.183-.862-.428-.224-.245-.348-.566-.348-.898 0-.332.124-.652.348-.897.224-.245.532-.398.862-.428h7.822c.184-.017.37.005.545.064.175.059.337.154.473.279.137.124.246.276.32.445.075.169.113.352.113.537 0 .185-.038.368-.113.537-.074.17-.183.321-.32.446-.136.125-.298.22-.473.279-.175.059-.361.08-.545.064h-7.822z" fill="#1162E8"/><path d="M234.749 119.015c0 .348-.135.681-.378.93s-.573.393-.92.401h-3.175c-.291 0-.574.096-.805.274-.231.178-.396.427-.471.708-.016.112-.016.226 0 .338v2.455c.017.184-.005.37-.064.545-.059.175-.154.336-.279.473-.124.136-.276.245-.445.32-.17.075-.352.113-.537.113-.185 0-.368-.038-.537-.113-.17-.075-.321-.184-.446-.32-.125-.137-.22-.298-.279-.473-.059-.175-.081-.361-.064-.545v-2.793c.006-.967.395-1.893 1.082-2.574.687-.681 1.616-1.062 2.584-1.059h3.436c.346.006.676.148.919.395.243.247.379.579.379.925zM246.892 125.452c-.174 0-.346-.035-.507-.102-.161-.067-.307-.165-.43-.289-.123-.124-.22-.27-.285-.432-.066-.161-.099-.334-.098-.508v-2.455c-.003-.351-.144-.687-.393-.934-.25-.247-.586-.386-.938-.386h-3.152c-.353 0-.692-.14-.941-.39-.25-.249-.39-.588-.39-.941.003-.351.144-.686.393-.934.25-.247.587-.386.938-.386h3.469c.482-.001.96.093 1.406.276.446.184.851.454 1.193.794.341.341.612.745.797 1.191.185.445.28.923.28 1.405v2.76c0 .175-.035.349-.102.512-.068.162-.167.309-.291.433-.125.123-.273.221-.436.288-.163.066-.337.099-.513.098zM234.754 136.268c0 .346-.136.678-.379.925s-.573.389-.919.395h-3.48c-.482.001-.959-.093-1.405-.276-.445-.184-.85-.454-1.19-.795-.341-.34-.611-.745-.795-1.19-.183-.446-.277-.923-.276-1.405v-2.76c-.017-.184.005-.37.064-.545.059-.175.154-.336.279-.473.125-.136.276-.245.446-.32.169-.075.352-.113.537-.113.185 0 .367.038.537.113.169.075.321.184.445.32.125.137.22.298.279.473.059.175.081.361.064.545v2.455c0 .35.139.686.387.933.247.248.583.387.933.387h3.175c.347.008.677.152.92.401.242.249.378.582.378.93zM248.226 131.162v2.76c0 .482-.095.96-.28 1.405-.184.446-.455.85-.797 1.191-.342.34-.747.61-1.193.794-.446.183-.924.277-1.406.276h-3.458c-.184.016-.37-.005-.545-.064-.175-.059-.336-.154-.473-.279-.137-.125-.246-.277-.32-.446-.075-.169-.113-.352-.113-.537 0-.185.038-.368.113-.537.074-.169.183-.321.32-.446.137-.124.298-.219.473-.278.175-.059.361-.081.545-.064h3.164c.351 0 .688-.139.937-.386.249-.247.391-.583.393-.934v-2.455c-.016-.184.006-.37.065-.545.059-.175.153-.336.278-.473.125-.136.277-.245.446-.32.169-.075.352-.113.537-.113.185 0 .368.038.537.113.169.075.321.184.446.32.124.137.219.298.278.473.059.175.081.361.064.545h-.011zM242.465 127.635c-.005.175-.044.349-.115.509-.072.161-.174.306-.302.426-.128.121-.278.215-.443.277-.164.063-.339.092-.515.086h-7.887c-.331-.03-.639-.183-.863-.428-.224-.245-.348-.565-.348-.898 0-.332.124-.652.348-.897.224-.245.532-.398.863-.428h7.887c.18-.006.36.025.528.09.168.066.321.165.449.292.129.126.23.277.299.444.068.167.102.346.099.527zM169.481 162.971h-6.786c-.335 0-.657-.133-.895-.371-.237-.237-.37-.559-.37-.894v-6.797c0-.336.133-.659.37-.899.237-.239.559-.374.895-.377h6.786c.337.003.66.138.899.377s.374.562.377.899v6.786c0 .338-.135.663-.374.902-.239.24-.564.374-.902.374zm-5.455-2.542h4.233v-4.233h-4.233v4.233zM169.481 176.39h-6.786c-.335 0-.657-.134-.895-.371-.237-.237-.37-.559-.37-.895v-6.785c0-.337.133-.66.37-.899s.559-.375.895-.378h6.786c.337.003.66.139.899.377.239.239.374.562.377.9v6.785c-.003.337-.139.659-.378.896s-.562.37-.898.37zm-5.455-2.542h4.233v-4.233h-4.233v4.233zM183.129 162.971h-6.785c-.336 0-.658-.133-.895-.371-.238-.237-.371-.559-.371-.894v-6.797c0-.336.133-.659.37-.899.237-.239.559-.374.896-.377h6.785c.33.014.642.154.871.392.23.237.359.554.362.884v6.786c0 .331-.129.649-.359.887-.23.238-.543.378-.874.389zm-5.509-2.542h4.233v-4.233h-4.233v4.233zM176.512 176.392h-2.705c-.317-.03-.611-.176-.825-.411-.215-.235-.334-.542-.334-.86 0-.318.119-.625.334-.86.214-.235.508-.382.825-.411h1.429v-4.756c0-.167.033-.333.097-.487.065-.154.159-.294.278-.412.118-.118.259-.211.414-.274.155-.063.32-.094.487-.093h2.728c.316.03.611.176.825.411.214.235.333.542.333.86 0 .318-.119.625-.333.86-.214.235-.509.382-.825.411h-1.419v4.767c-.001.169-.036.336-.103.491-.067.156-.164.296-.286.413-.122.117-.267.208-.424.268-.158.061-.327.089-.496.083zM183.273 176.386c-.335 0-.657-.133-.895-.37-.237-.238-.37-.559-.37-.895v-6.033c.029-.317.176-.611.411-.825.235-.215.542-.333.86-.333.318 0 .624.118.86.333.235.214.381.508.411.825v6.044c-.002.166-.036.33-.101.483-.065.153-.159.292-.278.408-.118.117-.259.209-.413.271-.154.062-.319.094-.485.092z" fill="#fff"/><path d="M139.262 184.96v24.491H103.36c-.709 0-1.388-.281-1.89-.783-.501-.501-.782-1.181-.782-1.889v-28.037h32.399c.815 0 1.622.161 2.374.474.752.313 1.434.772 2.008 1.35.574.578 1.028 1.264 1.336 2.018.307.754.463 1.562.457 2.376z" fill="#004BFF"/><path d="M139.263 209.451v12.59c.004.814-.152 1.621-.46 2.374-.308.754-.762 1.439-1.336 2.017-.574.577-1.256 1.036-2.007 1.35-.751.313-1.557.475-2.371.477H82.0886c-.8118 0-1.6156-.16-2.3654-.471-.7498-.311-1.431-.767-2.0045-1.342-.5735-.574-1.0281-1.256-1.3378-2.007-.3096-.75-.4683-1.554-.4668-2.366v-37.091c-.0015-.811.1572-1.616.4668-2.366.3097-.75.7643-1.432 1.3378-2.007.5735-.574 1.2547-1.03 2.0045-1.341.7498-.311 1.5536-.471 2.3654-.471h18.5454v28.036c.007.351.083.697.224 1.019.141.322.344.612.597.855.254.243.552.434.879.562.327.128.676.19 1.027.182h35.902z" fill="#02A0FF"/></g><defs><filter id="filter0_d_788_48947" x="217.779" y="112.818" width="25.3831" height="26.9222" filterUnits="userSpaceOnUse" color-interpolation-filters="sRGB"><feFlood flood-opacity="0" result="BackgroundImageFix"/><feColorMatrix in="SourceAlpha" values="0 0 0 0 0 0 0 0 0 0 0 0 0 0 0 0 0 0 127 0" result="hardAlpha"/><feOffset dx="2.83" dy="2.83"/><feGaussianBlur stdDeviation="5.67"/><feColorMatrix values="0 0 0 0 0 0 0 0 0 0 0 0 0 0 0 0 0 0 0.25 0"/><feBlend in2="BackgroundImageFix" result="effect1_dropShadow_788_48947"/><feBlend in="SourceGraphic" in2="effect1_dropShadow_788_48947" result="shape"/></filter><filter id="filter1_d_788_48947" x="217.771" y="121.201" width="31.0628" height="30.555" filterUnits="userSpaceOnUse" color-interpolation-filters="sRGB"><feFlood flood-opacity="0" result="BackgroundImageFix"/><feColorMatrix in="SourceAlpha" values="0 0 0 0 0 0 0 0 0 0 0 0 0 0 0 0 0 0 127 0" result="hardAlpha"/><feOffset dx="2.83" dy="2.83"/><feGaussianBlur stdDeviation="5.67"/><feColorMatrix values="0 0 0 0 0 0 0 0 0 0 0 0 0 0 0 0 0 0 0.25 0"/><feBlend in2="BackgroundImageFix" result="effect1_dropShadow_788_48947"/><feBlend in="SourceGraphic" in2="effect1_dropShadow_788_48947" result="shape"/></filter><filter id="filter2_d_788_48947" x="223.42" y="117.787" width="33.2972" height="25.3441" filterUnits="userSpaceOnUse" color-interpolation-filters="sRGB"><feFlood flood-opacity="0" result="BackgroundImageFix"/><feColorMatrix in="SourceAlpha" values="0 0 0 0 0 0 0 0 0 0 0 0 0 0 0 0 0 0 127 0" result="hardAlpha"/><feOffset dx="2.83" dy="2.83"/><feGaussianBlur stdDeviation="5.67"/><feColorMatrix values="0 0 0 0 0 0 0 0 0 0 0 0 0 0 0 0 0 0 0.25 0"/><feBlend in2="BackgroundImageFix" result="effect1_dropShadow_788_48947"/><feBlend in="SourceGraphic" in2="effect1_dropShadow_788_48947" result="shape"/></filter><filter id="filter3_d_788_48947" x="231.131" y="126.42" width="27.2816" height="25.3441" filterUnits="userSpaceOnUse" color-interpolation-filters="sRGB"><feFlood flood-opacity="0" result="BackgroundImageFix"/><feColorMatrix in="SourceAlpha" values="0 0 0 0 0 0 0 0 0 0 0 0 0 0 0 0 0 0 127 0" result="hardAlpha"/><feOffset dx="2.83" dy="2.83"/><feGaussianBlur stdDeviation="5.67"/><feColorMatrix values="0 0 0 0 0 0 0 0 0 0 0 0 0 0 0 0 0 0 0.25 0"/><feBlend in2="BackgroundImageFix" result="effect1_dropShadow_788_48947"/><feBlend in="SourceGraphic" in2="effect1_dropShadow_788_48947" result="shape"/></filter><clipPath id="clip0_788_48947"><path fill="#fff" transform="translate(48 48)" d="M0 0h240v240H0z"/></clipPath></defs></svg>