<svg viewBox="0 0 336 336" fill="none" xmlns="http://www.w3.org/2000/svg"><mask id="a" style="mask-type:alpha" maskUnits="userSpaceOnUse" x="0" y="0" width="336" height="336"><rect width="336" height="336" rx="22" fill="#F5F5F5"/></mask><g clip-path="url(#clip0_788_48960)"><path d="M235.734 135.711v53.651c-7.537 1.901-14.034 6.669-18.109 13.289-4.075 6.62-5.406 14.569-3.709 22.154H108.72c-2.746 0-5.379-1.09-7.321-3.032-1.9411-1.941-3.0318-4.575-3.0318-7.32v-78.742H235.734z" fill="#0078FF"/><path d="M243.275 188.414c-2.546-.002-5.083.316-7.549.949v25.091c0 2.746-1.091 5.379-3.032 7.321-1.942 1.941-4.575 3.032-7.321 3.032H213.93c1.216 5.506 3.963 10.556 7.924 14.569 3.961 4.013 8.975 6.826 14.464 8.115 5.49 1.288 11.231 1 16.564-.831 5.333-1.832 10.04-5.132 13.58-9.521 3.539-4.39 5.767-9.69 6.426-15.29.66-5.6-.276-11.272-2.699-16.363-2.423-5.092-6.234-9.396-10.996-12.416-4.761-3.02-10.279-4.634-15.918-4.656z" fill="#00B8FF"/><path d="M235.738 189.359v25.091c0 2.746-1.091 5.379-3.032 7.321-1.942 1.941-4.575 3.032-7.321 3.032h-11.454c-1.697-7.586-.367-15.535 3.708-22.154 4.075-6.62 10.573-11.388 18.11-13.29h-.011z" fill="#0057FF"/><path d="M237.152 233.366c.53.046 1.063-.028 1.56-.217.497-.188.944-.487 1.309-.874.84-.851 1.648-1.723 2.477-2.585l19.123-19.637c.753-.665 1.222-1.593 1.311-2.593.089-1.001-.208-1.997-.831-2.785-.334-.397-.744-.723-1.205-.959-.462-.236-.967-.378-1.484-.416-.517-.039-1.037.026-1.529.191-.491.165-.945.427-1.334.77-.906.768-1.742 1.615-2.499 2.531l-15.578 15.84c-1.418 1.45-1.571 1.44-3.032 0-1.822-1.746-3.633-3.513-5.455-5.204-.738-.708-1.727-1.094-2.75-1.074-1.022.021-1.995.446-2.705 1.183-.372.356-.665.786-.859 1.263-.195.476-.287.989-.271 1.503.017.515.141 1.02.366 1.483.225.464.545.874.939 1.206.676.698 1.396 1.363 2.095 2.029 2.509 2.4 5.007 4.8 7.527 7.178.353.393.791.703 1.28.905.489.202 1.017.291 1.545.262zM220.253 155.866c2.651 0 4.8-2.149 4.8-4.8s-2.149-4.8-4.8-4.8-4.8 2.149-4.8 4.8 2.149 4.8 4.8 4.8zM222.078 174.526c2.451-1.009 3.62-3.815 2.611-6.266s-3.815-3.62-6.266-2.611-3.62 3.815-2.611 6.266 3.815 3.62 6.266 2.611zM220.253 193.897c2.651 0 4.8-2.149 4.8-4.8s-2.149-4.8-4.8-4.8-4.8 2.149-4.8 4.8 2.149 4.8 4.8 4.8zM167.05 155.866c2.651 0 4.8-2.149 4.8-4.8s-2.149-4.8-4.8-4.8-4.8 2.149-4.8 4.8 2.149 4.8 4.8 4.8zM184.792 155.866c2.651 0 4.8-2.149 4.8-4.8s-2.149-4.8-4.8-4.8-4.8 2.149-4.8 4.8 2.149 4.8 4.8 4.8zM202.519 155.866c2.651 0 4.8-2.149 4.8-4.8s-2.149-4.8-4.8-4.8-4.8 2.149-4.8 4.8 2.149 4.8 4.8 4.8zM170.44 173.488c1.875-1.875 1.875-4.914 0-6.788-1.874-1.875-4.914-1.875-6.788 0-1.875 1.874-1.875 4.913 0 6.788 1.874 1.874 4.914 1.874 6.788 0zM185.877 174.031c2.438-1.007 3.599-3.801 2.591-6.24-1.007-2.438-3.801-3.599-6.239-2.592-2.439 1.008-3.6 3.802-2.592 6.24 1.007 2.439 3.801 3.6 6.24 2.592zM204.344 174.526c2.451-1.009 3.62-3.815 2.61-6.266-1.009-2.451-3.814-3.62-6.266-2.611-2.451 1.009-3.62 3.815-2.61 6.266 1.009 2.451 3.814 3.62 6.266 2.611zM167.05 193.897c2.651 0 4.8-2.149 4.8-4.8s-2.149-4.8-4.8-4.8-4.8 2.149-4.8 4.8 2.149 4.8 4.8 4.8zM184.792 193.897c2.651 0 4.8-2.149 4.8-4.8s-2.149-4.8-4.8-4.8-4.8 2.149-4.8 4.8 2.149 4.8 4.8 4.8zM202.519 193.897c2.651 0 4.8-2.149 4.8-4.8s-2.149-4.8-4.8-4.8-4.8 2.149-4.8 4.8 2.149 4.8 4.8 4.8zM170.524 211.435c1.826-1.923 1.747-4.961-.175-6.786-1.922-1.826-4.96-1.747-6.786.175-1.825 1.922-1.747 4.961.175 6.786 1.923 1.825 4.961 1.747 6.786-.175zM186.758 212.485c2.418-1.086 3.497-3.927 2.411-6.345-1.086-2.418-3.927-3.498-6.345-2.412-2.418 1.087-3.498 3.928-2.412 6.346 1.086 2.418 3.927 3.498 6.346 2.411zM204.484 212.485c2.418-1.086 3.498-3.927 2.412-6.345-1.086-2.418-3.927-3.498-6.346-2.412-2.418 1.087-3.498 3.928-2.411 6.346 1.086 2.418 3.927 3.498 6.345 2.411zM113.277 155.866c2.651 0 4.8-2.149 4.8-4.8s-2.149-4.8-4.8-4.8-4.8 2.149-4.8 4.8 2.149 4.8 4.8 4.8zM131.019 155.866c2.651 0 4.8-2.149 4.8-4.8s-2.149-4.8-4.8-4.8-4.8 2.149-4.8 4.8 2.149 4.8 4.8 4.8zM148.745 155.866c2.651 0 4.8-2.149 4.8-4.8s-2.149-4.8-4.8-4.8-4.8 2.149-4.8 4.8 2.149 4.8 4.8 4.8zM116.667 173.48c1.874-1.874 1.874-4.914 0-6.788-1.875-1.875-4.914-1.875-6.789 0-1.874 1.874-1.874 4.914 0 6.788 1.875 1.875 4.914 1.875 6.789 0zM132.361 174c2.439-1.007 3.599-3.801 2.592-6.24-1.007-2.439-3.801-3.599-6.24-2.592-2.439 1.008-3.599 3.801-2.592 6.24 1.007 2.439 3.801 3.6 6.24 2.592zM150.001 174.016c2.439-1.008 3.6-3.801 2.593-6.24-1.008-2.439-3.802-3.6-6.24-2.592-2.439 1.007-3.6 3.801-2.592 6.24 1.007 2.439 3.801 3.599 6.239 2.592zM113.277 193.897c2.651 0 4.8-2.149 4.8-4.8s-2.149-4.8-4.8-4.8-4.8 2.149-4.8 4.8 2.149 4.8 4.8 4.8zM131.019 193.897c2.651 0 4.8-2.149 4.8-4.8s-2.149-4.8-4.8-4.8-4.8 2.149-4.8 4.8 2.149 4.8 4.8 4.8zM148.745 193.897c2.651 0 4.8-2.149 4.8-4.8s-2.149-4.8-4.8-4.8-4.8 2.149-4.8 4.8 2.149 4.8 4.8 4.8zM116.751 211.427c1.825-1.922 1.747-4.961-.175-6.786-1.923-1.826-4.961-1.747-6.786.175-1.826 1.923-1.747 4.961.175 6.786 1.922 1.826 4.961 1.747 6.786-.175zM132.984 212.478c2.418-1.087 3.498-3.928 2.412-6.346-1.086-2.418-3.927-3.498-6.346-2.411-2.418 1.086-3.498 3.927-2.411 6.345 1.086 2.418 3.927 3.498 6.345 2.412zM150.711 212.493c2.418-1.086 3.498-3.927 2.411-6.345-1.086-2.418-3.927-3.498-6.345-2.412-2.418 1.087-3.498 3.927-2.412 6.346 1.087 2.418 3.928 3.498 6.346 2.411z" fill="#fff"/><path d="M108.569 115.812h117.098c2.671.001 5.232 1.061 7.12 2.95 1.889 1.888 2.949 4.449 2.949 7.12v9.665H98.5v-9.665c0-2.671 1.0608-5.232 2.949-7.12 1.888-1.889 4.45-2.949 7.12-2.95z" fill="#C8D1E8"/><path d="M110.877 120.775c-.621-.002-1.216-.25-1.656-.69-.439-.439-.687-1.034-.69-1.655v-9.545c.003-.622.251-1.217.69-1.656.44-.439 1.035-.687 1.656-.69.62.003 1.214.251 1.651.691.438.439.683 1.034.683 1.655v9.545c0 .62-.245 1.215-.683 1.655-.437.439-1.031.688-1.651.69zM125.485 106.539h-1.102c-.988 0-1.789.801-1.789 1.789v10.658c0 .988.801 1.789 1.789 1.789h1.102c.988 0 1.789-.801 1.789-1.789v-10.658c0-.988-.801-1.789-1.789-1.789zM138.991 120.775c-.62-.002-1.214-.251-1.652-.69-.437-.44-.683-1.035-.683-1.655v-9.545c0-.621.246-1.216.683-1.655.438-.44 1.032-.688 1.652-.691.621.003 1.216.251 1.655.69.439.439.687 1.034.69 1.656v9.545c-.003.621-.251 1.216-.69 1.655-.439.44-1.034.688-1.655.69zM153.053 120.775c-.62-.002-1.214-.251-1.651-.69-.438-.44-.683-1.035-.683-1.655v-9.545c0-.621.245-1.216.683-1.655.437-.44 1.031-.688 1.651-.691.621.003 1.216.251 1.656.69.439.439.687 1.034.69 1.656v9.545c-.003.621-.251 1.216-.69 1.655-.44.44-1.035.688-1.656.69zM167.116 120.775c-.312.005-.621-.053-.91-.168-.289-.116-.552-.288-.774-.506-.222-.218-.399-.478-.52-.765-.121-.287-.184-.595-.185-.906v-9.545c.002-.622.25-1.217.69-1.656.439-.439 1.034-.687 1.655-.69.62.003 1.214.251 1.651.691.438.439.684 1.034.684 1.655v9.545c0 .613-.24 1.201-.668 1.639-.428.439-1.011.692-1.623.706zM181.181 120.775c-.621-.002-1.216-.25-1.655-.69-.439-.439-.687-1.034-.69-1.655v-9.545c.003-.622.251-1.217.69-1.656.439-.439 1.034-.687 1.655-.69.621.003 1.214.251 1.652.691.437.439.683 1.034.683 1.655v9.545c0 .62-.246 1.215-.683 1.655-.438.439-1.031.688-1.652.69zM195.275 120.775c-.621-.002-1.216-.25-1.655-.69-.439-.439-.687-1.034-.69-1.655v-9.545c.003-.622.251-1.217.69-1.656.439-.439 1.034-.687 1.655-.69.62.003 1.214.251 1.652.691.437.439.683 1.034.683 1.655v9.545c0 .62-.246 1.215-.683 1.655-.438.439-1.032.688-1.652.69zM209.288 120.775c-.62-.002-1.214-.251-1.652-.69-.437-.44-.683-1.035-.683-1.655v-9.545c0-.621.246-1.216.683-1.655.438-.44 1.032-.688 1.652-.691.621.003 1.216.251 1.655.69.439.439.687 1.034.69 1.656v9.545c-.003.621-.251 1.216-.69 1.655-.439.44-1.034.688-1.655.69zM223.35 120.775c-.62-.002-1.214-.251-1.651-.69-.438-.44-.683-1.035-.683-1.655v-9.545c0-.621.245-1.216.683-1.655.437-.44 1.031-.688 1.651-.691.621.003 1.216.251 1.655.69.44.439.688 1.034.691 1.656v9.545c-.003.621-.251 1.216-.691 1.655-.439.44-1.034.688-1.655.69z" fill="#0078FF"/></g><defs><clipPath id="clip0_788_48960"><path fill="#fff" transform="translate(48 48)" d="M0 0h240v240H0z"/></clipPath></defs></svg>