<svg viewBox="0 0 336 336" fill="none" xmlns="http://www.w3.org/2000/svg"><mask id="a" style="mask-type:alpha" maskUnits="userSpaceOnUse" x="0" y="0" width="336" height="336"><rect width="336" height="336" rx="22" fill="#F5F5F5"/></mask><g clip-path="url(#clip0_788_48990)"><path d="M239.726 105.663v27.851c0 2.461-.977 4.82-2.716 6.561-1.738 1.741-4.097 2.72-6.557 2.723h-49.658v-5.455c.001-1.218-.238-2.425-.703-3.552-.465-1.126-1.148-2.149-2.009-3.012-.862-.862-1.884-1.546-3.01-2.012-1.126-.467-2.332-.707-3.551-.707h-13.756v-22.397c0-2.459.977-4.817 2.716-6.5565 1.739-1.7389 4.097-2.7159 6.556-2.7159h63.415c2.458.0029 4.815.9808 6.554 2.7191 1.738 1.7383 2.716 4.0953 2.719 6.5533z" fill="#02A0FF"/><path d="M180.795 137.377v5.455h-13.757c-1.218 0-2.425-.24-3.551-.707-1.125-.467-2.148-1.151-3.009-2.013-.862-.862-1.544-1.886-2.01-3.012-.465-1.126-.704-2.333-.702-3.552v-5.454h13.756c1.219 0 2.425.24 3.551.707 1.126.466 2.148 1.15 3.01 2.013.861.862 1.544 1.885 2.009 3.012.465 1.126.704 2.333.703 3.551z" fill="#0175D2"/><path d="M180.796 142.799v21.415h-42.131c-2.216 0-4.342.88-5.909 2.447-1.567 1.567-2.447 3.693-2.447 5.909v1.975H108.12c-1.219.001-2.426-.238-3.552-.703-1.127-.465-2.15-1.148-3.012-2.009-.862-.862-1.546-1.884-2.0132-3.01-.4667-1.126-.7069-2.332-.7069-3.551v-27.895c0-2.462.9781-4.823 2.7191-6.564 1.741-1.741 4.102-2.719 6.565-2.719h49.647v5.454c-.002 1.219.237 2.426.703 3.552.465 1.126 1.148 2.15 2.009 3.012.861.862 1.884 1.546 3.01 2.013 1.125.467 2.332.707 3.551.707l13.756-.033z" fill="#AFBBD2"/><path d="M246.2 216.445c-.009 4.502-1.799 8.818-4.98 12.005-3.18 3.186-7.493 4.985-11.995 5.002H106.782c-4.429-.112-8.639-1.95-11.7317-5.122-3.0928-3.173-4.8237-7.428-4.8237-11.858 0-4.43 1.7309-8.685 4.8237-11.857 3.0927-3.172 7.3027-5.011 11.7317-5.123h24c.559 1.657 1.624 3.097 3.045 4.117 1.421 1.019 3.126 1.567 4.875 1.567h57.992c1.749 0 3.454-.548 4.875-1.567 1.421-1.02 2.486-2.46 3.045-4.117h24.611c4.495.012 8.802 1.801 11.983 4.977 3.18 3.176 4.974 7.481 4.992 11.976z" fill="#0078FF"/><path d="M166.264 227.063c.35.028.701-.023 1.027-.15.327-.126.621-.325.861-.581.556-.556 1.091-1.145 1.636-1.701 4.225-4.364 8.444-8.691 12.655-12.982.276-.212.507-.479.676-.784.17-.304.276-.641.31-.988.035-.347-.002-.697-.108-1.03-.106-.332-.279-.639-.508-.902-.229-.263-.51-.476-.825-.626-.314-.15-.657-.234-1.005-.247-.349-.013-.696.046-1.021.173-.325.127-.621.318-.869.564-.601.51-1.156 1.072-1.658 1.68l-10.298 10.473c-.949.96-1.091.949-2.007 0-1.211-1.157-2.411-2.324-3.644-3.448-.49-.469-1.147-.725-1.827-.711-.679.015-1.324.298-1.795.788-.241.235-.431.518-.556.83-.126.313-.185.648-.174.985.011.337.093.668.239.971.147.304.355.573.611.792.448.458.917.894 1.386 1.342 1.658 1.592 3.273 3.174 4.974 4.745.238.272.535.485.867.625.333.14.693.202 1.053.182z" fill="#fff"/><path d="M112.6 137.451c-.004.772-.238 1.526-.67 2.166-.433.64-1.046 1.137-1.761 1.428-.715.292-1.501.365-2.258.21-.757-.155-1.45-.531-1.993-1.08-.544-.549-.912-1.247-1.058-2.006-.147-.758-.065-1.543.235-2.255.299-.712.803-1.319 1.448-1.744.645-.426 1.401-.651 2.173-.647.514 0 1.023.102 1.497.3.474.198.904.488 1.265.853.361.366.646.799.839 1.275.192.476.289.986.283 1.5z" fill="#0078FF" opacity=".8"/><path d="M180.8 164.211v1.014c.001 1.219-.238 2.425-.703 3.551-.466 1.125-1.149 2.148-2.01 3.009-.861.862-1.884 1.545-3.01 2.01-1.125.466-2.332.705-3.55.703h-41.215v-1.931c0-2.216.881-4.341 2.448-5.909 1.567-1.567 3.693-2.447 5.909-2.447H180.8z" fill="#0175D2"/><path d="M204.608 199.477c-.56 1.657-1.625 3.096-3.046 4.116-1.421 1.02-3.125 1.568-4.874 1.567h-58.026c-1.749.001-3.454-.547-4.874-1.567-1.421-1.02-2.486-2.459-3.046-4.116h73.866z" fill="#004BFF"/><path d="M205.094 172.571V196.8c.002.908-.146 1.811-.436 2.672h-73.909c-.291-.861-.438-1.764-.436-2.672v-22.255h41.214c1.218.002 2.425-.237 3.55-.703 1.126-.465 2.149-1.148 3.01-2.01.861-.861 1.544-1.884 2.01-3.009.465-1.126.704-2.332.703-3.551v-1.014h15.894c1.098-.006 2.185.205 3.202.619 1.016.415 1.94 1.026 2.72 1.798.78.771 1.4 1.689 1.826 2.701.425 1.012.647 2.097.652 3.195z" fill="#02A0FF"/><path d="M199.694 173.302c-.005.772-.238 1.526-.67 2.165-.432.64-1.044 1.137-1.759 1.429-.714.292-1.5.365-2.256.211-.756-.154-1.45-.528-1.994-1.077-.543-.548-.912-1.245-1.06-2.002-.148-.758-.068-1.542.23-2.255.298-.712.8-1.32 1.444-1.747.643-.426 1.398-.653 2.17-.651.514.001 1.022.104 1.496.303.474.198.905.488 1.266.852.362.365.648.798.843 1.274.194.475.293.984.29 1.498zM234.053 106.373c-.004.772-.237 1.525-.669 2.165-.433.639-1.045 1.136-1.759 1.428-.715.292-1.5.366-2.257.212-.756-.154-1.45-.529-1.993-1.077-.544-.548-.913-1.245-1.061-2.003-.147-.758-.067-1.542.231-2.254.298-.712.8-1.32 1.443-1.747.643-.427 1.399-.654 2.17-.652.515-.001 1.025.1 1.5.297.476.197.907.487 1.269.852.363.366.649.8.842 1.276.193.477.29.988.284 1.503z" fill="#0078FF" opacity=".8"/></g><defs><clipPath id="clip0_788_48990"><path fill="#fff" transform="translate(48 48)" d="M0 0h240v240H0z"/></clipPath></defs></svg>