<svg viewBox="0 0 336 336" fill="none" xmlns="http://www.w3.org/2000/svg"><mask id="a" style="mask-type:alpha" maskUnits="userSpaceOnUse" x="0" y="0" width="336" height="336"><rect width="336" height="336" rx="22" fill="#F5F5F5"/></mask><g clip-path="url(#clip0_788_49001)"><path d="M166.366 182.304l-10.276.065c-1.214.006-2.415.251-3.534.722-1.119.47-2.134 1.157-2.987 2.02-.853.863-1.528 1.887-1.985 3.011-.457 1.125-.688 2.328-.68 3.542l.088 14.804-68.1058.414c-1.7774.009-3.4857-.688-4.7498-1.938-1.264-1.25-1.9804-2.95-1.992-4.727l-.3709-61.386c-.0087-1.777.6883-3.486 1.938-4.75 1.2497-1.264 2.95-1.98 4.7275-1.992l79.538-.48v8.837c.016 2.25.851 4.417 2.348 6.095 1.498 1.679 3.557 2.754 5.79 3.025l.251 32.738z" fill="#0078FF"/><path d="M166.169 149.566c-2.233-.271-4.291-1.346-5.789-3.025-1.498-1.678-2.333-3.845-2.349-6.095v-8.837h1.386c1.777-.008 3.485.689 4.75 1.938 1.264 1.25 1.98 2.95 1.992 4.728l.01 11.291z" fill="#004BFF"/><path d="M225.099 140.042c.012 1.463-.329 2.907-.993 4.21l-19.756.12c-1.702.01-3.368.49-4.813 1.387-1.446.898-2.616 2.177-3.38 3.697h-10.626v-3.011l9.633-.065v-8.651l-18.283.109.076 11.673h-9.546c-.39 0-.779-.022-1.167-.066l-.065-11.302c-.012-1.777-.728-3.477-1.992-4.727-1.264-1.25-2.973-1.947-4.75-1.938h-1.386l-.098-16.909c-.014-2.452.945-4.809 2.667-6.554 1.723-1.745 4.067-2.734 6.519-2.752l48.578-.294c2.452-.012 4.808.95 6.55 2.675 1.743 1.724 2.73 4.07 2.744 6.521l.088 25.877z" fill="#02A0FF"/><path d="M166.47 199.639c.005.881-.163 1.755-.494 2.571-.332.816-.822 1.559-1.441 2.186-.619.627-1.355 1.126-2.167 1.469-.812.342-1.683.521-2.564.527l-12.818.076-.087-14.803c-.009-1.214.222-2.418.679-3.542.457-1.125 1.132-2.148 1.985-3.011.853-.864 1.869-1.55 2.988-2.021 1.119-.47 2.319-.715 3.533-.721l10.276-.065.11 17.334z" fill="#004BFF"/><path d="M215.999 218.179c.014 2.452-.945 4.809-2.668 6.554-1.722 1.745-4.066 2.735-6.518 2.752l-50.411.305c-2.451.012-4.807-.95-6.55-2.674-1.743-1.725-2.73-4.07-2.744-6.522l-.077-12.153 12.818-.076c1.768-.023 3.456-.743 4.696-2.004 1.24-1.26 1.932-2.959 1.926-4.727l-.109-17.335 10.702-.065.109 17.247 18.284-.109v-8.651h-9.633l-.055-8.585 9.742-.066c.377 2.152 1.505 4.1 3.183 5.498 1.677 1.398 3.797 2.156 5.981 2.139l11.04-.066c.088.493.132.994.131 1.495l.153 27.043z" fill="#02A0FF"/><path d="M215.665 189.754l-11.04.065c-2.184.018-4.304-.74-5.982-2.139-1.678-1.398-2.805-3.346-3.182-5.497l11.04-.066c2.184-.017 4.303.741 5.981 2.139 1.678 1.399 2.806 3.346 3.183 5.498zM224.105 144.25c-.766 1.522-1.938 2.802-3.385 3.701-1.447.899-3.115 1.381-4.818 1.394l-19.746.12c.763-1.523 1.932-2.804 3.378-3.703 1.446-.9 3.112-1.381 4.815-1.392l19.756-.12z" fill="#0175D2"/><path d="M264.214 180.215c.009 1.214-.222 2.418-.679 3.542-.457 1.125-1.132 2.148-1.985 3.011-.853.864-1.868 1.55-2.987 2.021-1.119.47-2.32.715-3.534.721l-39.371.24c-.377-2.151-1.504-4.099-3.182-5.498-1.678-1.398-3.797-2.156-5.982-2.138l-11.04.065c-.088-.493-.132-.993-.13-1.494v-15.971l-.066-10.986c-.012-1.463.329-2.907.993-4.211l19.745-.12c1.704-.012 3.371-.494 4.819-1.393 1.447-.899 2.618-2.18 3.385-3.701l30.654-.186c2.452-.011 4.808.951 6.551 2.675 1.743 1.724 2.73 4.07 2.744 6.522l.065 26.901z" fill="#AFBBD2"/><path d="M195.455 199.377l-18.283.109-.11-17.247 8.651-.044.055 8.586 9.633-.055.054 8.651zM185.51 146.505l.022 3.011-8.651.055-.076-11.673 18.283-.109.055 8.651-9.633.065z" fill="#0175D2"/><path d="M195.286 173.316l-9.622.066.054 8.814-8.651.044-.054-8.815-10.615.066-.054-8.651 10.625-.066-.087-15.196 8.651-.055.087 15.197 9.611-.055h.022l.054 8.651h-.021z" fill="#AFBBD2"/></g><defs><clipPath id="clip0_788_49001"><path fill="#fff" transform="translate(48 48)" d="M0 0h240v240H0z"/></clipPath></defs></svg>