<svg width="280" height="280" viewBox="0 0 280 280" fill="none" xmlns="http://www.w3.org/2000/svg">
<mask id="mask0_3287_46002" style="mask-type:alpha" maskUnits="userSpaceOnUse" x="0" y="0" width="280" height="280">
<rect width="280" height="280" rx="22" fill="#F5F5F5"/>
</mask>
<g mask="url(#mask0_3287_46002)">
<g style="mix-blend-mode:multiply">
<path d="M75.009 125.99L137.336 167.369C138.637 168.233 140.328 168.233 141.628 167.369L203.955 125.99C206.267 124.456 206.267 121.061 203.955 119.527L141.628 78.1475C140.328 77.2842 138.636 77.2842 137.336 78.1475L75.009 119.527C72.6975 121.061 72.6975 124.456 75.009 125.99Z" fill="#1677FF"/>
<g style="mix-blend-mode:multiply">
<path d="M65.8668 150.333L97.0306 171.023C97.6808 171.454 98.5262 171.454 99.1762 171.023L130.34 150.333C131.496 149.566 131.496 147.869 130.34 147.101L99.1762 126.412C98.5262 125.98 97.6806 125.98 97.0306 126.412L65.8668 147.101C64.7111 147.868 64.7111 149.566 65.8668 150.333Z" fill="#00B8FF"/>
</g>
<g style="mix-blend-mode:multiply">
<path d="M149.66 150.333L180.824 171.023C181.474 171.454 182.319 171.454 182.969 171.023L214.133 150.333C215.289 149.566 215.289 147.869 214.133 147.101L182.969 126.412C182.319 125.98 181.474 125.98 180.824 126.412L149.66 147.101C148.504 147.868 148.504 149.566 149.66 150.333Z" fill="#00B8FF"/>
</g>
<g style="mix-blend-mode:multiply">
<path d="M107.246 181.368L138.41 202.058C139.06 202.49 139.905 202.49 140.555 202.058L171.719 181.368C172.875 180.601 172.875 178.904 171.719 178.136L140.555 157.447C139.905 157.015 139.06 157.015 138.41 157.447L107.246 178.136C106.09 178.904 106.09 180.601 107.246 181.368Z" fill="#9DABD3"/>
</g>
</g>
<path d="M83.2402 90.5205L76.5627 94.4427" stroke="#9DABD3" stroke-width="6" stroke-linecap="round"/>
<path d="M144.541 114.77L126.926 126.651" stroke="white" stroke-width="6" stroke-linecap="round"/>
<path d="M113.289 102.206L101.745 110.129" stroke="white" stroke-width="6" stroke-linecap="round"/>
<path d="M104.891 91.3154L89.2328 101.877" stroke="#9DABD3" stroke-width="6" stroke-linecap="round"/>
<path d="M164.896 118.417L140.431 134.919" stroke="white" stroke-width="6" stroke-linecap="round"/>
<path d="M135.943 103.876L114.414 118.398" stroke="white" stroke-width="6" stroke-linecap="round"/>
</g>
</svg>
