<svg viewBox="0 0 336 336" fill="none" xmlns="http://www.w3.org/2000/svg"><mask id="a" style="mask-type:alpha" maskUnits="userSpaceOnUse" x="0" y="0" width="336" height="336"><rect width="336" height="336" rx="22" fill="#F5F5F5"/></mask><g clip-path="url(#clip0_788_48977)"><path d="M194.432 130.668c-.163 9.447-2.912 17.138-7.298 23.062-8.208-3.23-17.209-3.868-25.791-1.828s-16.332 6.66-22.209 13.239c-12.065-5.335-21.414-16.778-21.72-34.484.873-50.6071 76.156-50.6071 77.018.011z" fill="#AFBBD2"/><path d="M143.585 136.104c3.258 1.927 6.908 3.094 10.68 3.415v-6.688c-16.538 2.684-16.004-16.276 0-15.818v-5.138h4.014v5.247c3.521.3 6.969 1.169 10.211 2.575l-2.356 4.363c-2.5-1.085-5.147-1.794-7.855-2.105v5.389c17.848-2.749 16.364 16.964 0 16.975v5.138h-4.014v-5.149c-4.746-.236-9.376-1.549-13.538-3.84l2.858-4.364zm4.036-10.909c.164 3.022 4.178 2.825 6.644 2.542v-6c-2.629.218-6.273.545-6.644 3.502v-.044zm10.658 14.313c9.12.229 9.895-8.989 0-7.244v7.244z" fill="#fff"/><path d="M243.269 169.96c-.003 1.132-.454 2.217-1.256 3.017-.802.8-1.888 1.249-3.02 1.249-1.13-.006-2.211-.457-3.01-1.256-.799-.799-1.25-1.88-1.256-3.01v-25.909l-24.425 24.382c-1.272.066-2.54.204-3.796.414-1.198-1.676-2.515-3.266-3.939-4.756l26.084-26.084h-25.909c-1.131 0-2.216-.449-3.016-1.249-.8-.8-1.249-1.885-1.249-3.016s.449-2.216 1.249-3.016c.8-.8 1.885-1.249 3.016-1.249h40.527v40.483z" fill="#00B8FF"/><g filter="url(#filter0_d_788_48977)"><path d="M210.304 168.436l-22.669 22.647c-.396.397-.866.712-1.384.927-.518.215-1.073.326-1.634.326-.56.001-1.116-.109-1.634-.323-.518-.215-.989-.529-1.386-.925-.397-.396-.712-.866-.927-1.384-.215-.518-.326-1.073-.326-1.634-.001-.56.109-1.116.323-1.634.214-.518.528-.989.925-1.386l20.956-20.956c1.424 1.49 2.74 3.079 3.938 4.756 1.264-.211 2.539-.35 3.818-.414z" fill="#0057FF"/></g><g filter="url(#filter1_d_788_48977)"><path d="M187.125 153.733c-10.909 14.727-31.865 18.545-48 11.411 5.877-6.579 13.627-11.199 22.209-13.239 8.582-2.04 17.583-1.402 25.791 1.828z" fill="#0058D2"/></g><path d="M246.623 202.747c0 9.117-3.621 17.86-10.068 24.307-6.446 6.446-15.19 10.068-24.306 10.068h-93.644c-3.904.047-7.77-.78-11.313-2.421-3.544-1.64-6.675-4.053-9.1659-7.06-2.4905-3.008-4.2768-6.534-5.228-10.321s-1.0433-7.739-.2695-11.566c.7738-3.828 2.3938-7.433 4.7415-10.554 2.3477-3.12 5.3639-5.675 8.8269-7.479 3.463-1.804 7.286-2.81 11.188-2.945 3.903-.135 7.786.604 11.366 2.164 1.317-8.116 4.928-15.687 10.407-21.818 16.102 7.123 37.091 3.273 48-11.411 5.839 2.289 11.107 5.826 15.436 10.364l-20.956 20.956c-.8.801-1.249 1.888-1.248 3.02.001 1.133.452 2.218 1.253 3.018.802.8 1.888 1.249 3.02 1.248 1.133-.001 2.218-.452 3.018-1.253l22.648-22.648c.643 0 1.287-.065 1.942-.065 4.514.003 8.983.895 13.152 2.625 4.17 1.73 7.958 4.264 11.148 7.458 3.19 3.194 5.719 6.985 7.444 11.157 1.725 4.172 2.611 8.642 2.608 13.156z" fill="#0078FF"/></g><defs><filter id="filter0_d_788_48977" x="171.834" y="155.584" width="52.6409" height="50.9222" filterUnits="userSpaceOnUse" color-interpolation-filters="sRGB"><feFlood flood-opacity="0" result="BackgroundImageFix"/><feColorMatrix in="SourceAlpha" values="0 0 0 0 0 0 0 0 0 0 0 0 0 0 0 0 0 0 127 0" result="hardAlpha"/><feOffset dx="2.83" dy="2.83"/><feGaussianBlur stdDeviation="5.67"/><feColorMatrix values="0 0 0 0 0 0 0 0 0 0 0 0 0 0 0 0 0 0 0.25 0"/><feBlend in2="BackgroundImageFix" result="effect1_dropShadow_788_48977"/><feBlend in="SourceGraphic" in2="effect1_dropShadow_788_48977" result="shape"/></filter><filter id="filter1_d_788_48977" x="130.615" y="142.224" width="70.68" height="40.5784" filterUnits="userSpaceOnUse" color-interpolation-filters="sRGB"><feFlood flood-opacity="0" result="BackgroundImageFix"/><feColorMatrix in="SourceAlpha" values="0 0 0 0 0 0 0 0 0 0 0 0 0 0 0 0 0 0 127 0" result="hardAlpha"/><feOffset dx="2.83" dy="2.83"/><feGaussianBlur stdDeviation="5.67"/><feColorMatrix values="0 0 0 0 0 0 0 0 0 0 0 0 0 0 0 0 0 0 0.25 0"/><feBlend in2="BackgroundImageFix" result="effect1_dropShadow_788_48977"/><feBlend in="SourceGraphic" in2="effect1_dropShadow_788_48977" result="shape"/></filter><clipPath id="clip0_788_48977"><path fill="#fff" transform="translate(48 48)" d="M0 0h240v240H0z"/></clipPath></defs></svg>