<svg width="200" height="200" viewBox="0 0 200 200" fill="none" xmlns="http://www.w3.org/2000/svg">
<mask id="mask0_3785_57391" style="mask-type:alpha" maskUnits="userSpaceOnUse" x="0" y="0" width="200" height="200">
<rect width="200" height="200" rx="22" fill="#F5F5F5"/>
</mask>
<g mask="url(#mask0_3785_57391)">
<g style="mix-blend-mode:multiply">
<path d="M104.809 125.043H95.1339C91.5715 125.043 88.6836 127.931 88.6836 131.493V141.169C88.6836 144.731 91.5715 147.619 95.1339 147.619H104.809C108.372 147.619 111.26 144.731 111.26 141.169V131.493C111.26 127.931 108.372 125.043 104.809 125.043Z" fill="#9DABD3"/>
</g>
<g style="mix-blend-mode:multiply">
<path d="M75.6492 124.812H65.9737C62.4113 124.812 59.5234 127.699 59.5234 131.262V140.937C59.5234 144.5 62.4113 147.388 65.9737 147.388H75.6492C79.2116 147.388 82.0995 144.5 82.0995 140.937V131.262C82.0995 127.699 79.2116 124.812 75.6492 124.812Z" fill="#00B8FF"/>
</g>
<g style="mix-blend-mode:multiply">
<path d="M133.97 125.043H124.294C120.732 125.043 117.844 127.931 117.844 131.493V141.169C117.844 144.731 120.732 147.619 124.294 147.619H133.97C137.532 147.619 140.42 144.731 140.42 141.169V131.493C140.42 127.931 137.532 125.043 133.97 125.043Z" fill="#00B8FF"/>
</g>
<g style="mix-blend-mode:multiply">
<path d="M131.284 125.043L131.284 115.146C131.284 111.686 128.476 108.879 125.017 108.879H102.455V104.25H97.4413V108.879H74.8793C71.4198 108.879 68.6121 111.686 68.6121 115.146L68.6121 125.043C51.0148 125.043 83.9819 125.043 73.6259 125.043L73.6259 115.146C73.6259 114.444 74.1774 113.892 74.8793 113.892H97.4413H102.455H125.017C125.719 113.892 126.27 114.444 126.27 115.146L126.27 125.043C113.09 125.043 150.96 125.043 131.284 125.043Z" fill="#00B8FF"/>
</g>
<g style="mix-blend-mode:multiply">
<path fill-rule="evenodd" clip-rule="evenodd" d="M98.4849 52.5597L76.5359 57.9098C73.7287 58.594 71.7539 61.1026 71.7539 63.9842V90.567C71.7539 101.09 77.7661 110.695 87.2471 115.317L98.5968 120.85C99.0314 121.061 99.5027 121.167 99.974 121.167C100.445 121.167 100.917 121.061 101.351 120.85L112.701 115.317C122.182 110.695 128.194 101.09 128.194 90.567V63.9842C128.194 61.1026 126.219 58.594 123.412 57.9098L101.463 52.5597C100.974 52.4405 100.474 52.3809 99.974 52.3809C99.4739 52.3809 98.974 52.4405 98.4849 52.5597Z" fill="#1677FF"/>
</g>
<path d="M110.852 78.0988C111.757 78.9727 111.757 80.3896 110.852 81.2634L99.2601 92.4521C98.3548 93.326 96.8869 93.326 95.9816 92.4521L89.0267 85.7389C88.1213 84.8651 88.1213 83.4481 89.0267 82.5743C89.932 81.7004 91.3999 81.7004 92.3052 82.5743L97.6209 87.705L107.573 78.0988C108.478 77.2249 109.946 77.2249 110.852 78.0988Z" fill="white"/>
</g>
</svg>
