<svg fill="none" viewBox="0 0 46 46" xmlns="http://www.w3.org/2000/svg"><g fill="#2a3a52"><path clip-rule="evenodd" d="m32.3594 8.57125c1.2061-.30248 2.4289.43069 2.7303 1.63705l1.1952 4.7839h-26.31386c-.82941 0-1.62485.3295-2.21133.9159-.58648.5865-.91596 1.382-.91596 2.2114v9.6013l-2.28773-9.9001c-.2761-1.1949.45543-2.3907 1.64489-2.689zm-25.51565 24.25315c-.2353-.0819-.42467-.2791-.48491-.5398l-3.26431-14.1262c-.46016-1.9914.75905-3.9845 2.74149-4.4817l26.15858-6.56039c2.0101-.50414 4.048.71782 4.5504 2.72842l1.2722 5.09227c.0046.0184.0084.0368.0116.0552h2.1642c.8294 0 1.6249.3295 2.2113.9159.5865.5865.916 1.382.916 2.2114v18.1382c0 .8295-.3295 1.6249-.916 2.2114-.5864.5865-1.3819.9159-2.2113.9159h-30.02196c-.82941 0-1.62485-.3294-2.21133-.9159s-.91596-1.3819-.91596-2.2114zm3.12729-16.5813h30.02196c.4977 0 .9749.1977 1.3268.5496s.5496.8291.5496 1.3268v.9382h-33.77473v-.9382c0-.4977.19768-.9749.54957-1.3268s.82915-.5496 1.3268-.5496zm30.02196 21.891h-30.02196c-.49765 0-.97491-.1977-1.3268-.5496-.35189-.3518-.54957-.8291-.54957-1.3268v-15.9491h33.77473v15.9491c0 .4977-.1977.975-.5496 1.3268-.3519.3519-.8291.5496-1.3268.5496zm-26.2693-14.0746h25.3156c.1659 0 .325-.0659.4423-.1832s.1832-.2764.1832-.4422c0-.1659-.0659-.325-.1832-.4423s-.2764-.1832-.4423-.1832h-25.3156c-.1659 0-.325.0659-.4423.1832s-.1832.2764-.1832.4423c0 .1658.0659.3249.1832.4422s.2764.1832.4423.1832zm-3.1273 8.7577h6.8801c.1659 0 .3249.0659.4422.1832s.1832.2764.1832.4422c0 .1659-.0659.325-.1832.4423s-.2763.1832-.4422.1832h-6.8801c-.1658 0-.3249-.0659-.4422-.1832s-.18321-.2764-.18321-.4423c0-.1658.06591-.3249.18321-.4422s.2764-.1832.4422-.1832zm.6255-9.3831c0 .3454-.28.6254-.6255.6254-.3454 0-.62541-.28-.62541-.6254 0-.3455.28001-.6255.62541-.6255.3455 0 .6255.28.6255.6255zm23.1419 7.5071h5.0037c.1659 0 .325.0659.4422.1832.1173.1173.1832.2764.1832.4423v3.7528c0 .1658-.0659.3249-.1832.4422-.1172.1173-.2763.1832-.4422.1832h-5.0037c-.1659 0-.3249-.0659-.4422-.1832s-.1832-.2764-.1832-.4422v-3.7528c0-.1659.0659-.325.1832-.4423s.2763-.1832.4422-.1832zm.6255 3.7528h3.7527v-2.5018h-3.7527z" fill-rule="evenodd"/><path d="m35.0897 10.2083.0465-.0116zm-2.7303-1.63705-.0116-.04648zm3.9255 6.42095v.0479h.0613l-.0149-.0595zm-28.52519.9159-.03388-.0338zm-.91596 11.8127-.04669.0107.09461-.0107zm-2.28773-9.9001-.04669.0107zm1.64489-2.689-.01165-.0465zm.64284 17.6927h.04792v-.034l-.03217-.0112zm-.48491-.5398.04669-.0108zm-3.26431-14.1262.04669-.0108zm2.74149-4.4817-.01165-.0465zm26.15858-6.56039.0116.04647zm4.5504 2.72842.0464-.01162zm1.2722 5.09227-.0465.0116zm.0116.0552-.0472.0081.0068.0398h.0404zm4.3755.9159.0339-.0338zm-34.44459 22.561.03388-.0339zm34.10969-19.4114v.0479h.0479v-.0479zm-33.77473 0h-.04792v.0479h.04792zm.54957-2.265.03388.0339zm0 20.7918-.03388.0339zm-.54957-17.2759v-.0479h-.04792v.0479zm33.77473 0h.0479v-.0479h-.0479zm-.5496 17.2759.0339.0339zm-1.8382-13.7082.0339.0339zm0-.8845.0339-.0339zm-26.2002 0-.0339-.0339zm0 .8845.0339-.0339zm4.6373 9.1241.0339-.0339zm0 .8845-.0338-.0339zm-7.7645 0 .0339-.0339zm0-.8845-.0339-.0339zm29.6555-1.876.0339-.0338zm0 4.6373.0339.0339zm-5.8881 0 .0338-.0339zm0-4.6373.0338.0339zm4.8204 3.5696v.0479h.0479v-.0479zm-3.7527 0h-.0479v.0479h.0479zm3.7527-2.5018h.0479v-.048h-.0479zm-3.7527 0v-.048h-.0479v.048zm.1469-21.9955c-.3078-1.23206-1.5566-1.98085-2.7884-1.67193l.0233.09295c1.1804-.29603 2.3771.42153 2.6721 1.60218zm1.1951 4.7839-1.1951-4.7839-.093.0232 1.1952 4.7839zm-26.36026.0595h26.31386v-.0958h-26.31386zm-2.17745.9019c.5775-.5775 1.36075-.9019 2.17745-.9019v-.0958c-.84212 0-1.64974.3345-2.24521.93zm-.90192 2.1775c0-.8167.32443-1.6.90192-2.1775l-.06776-.0677c-.59547.5954-.93 1.4031-.93 2.2452zm0 9.6013v-9.6013h-.09584v9.6013zm-2.38234-9.8894 2.28773 9.9001.09338-.0215-2.28773-9.9001zm1.67993-2.7462c-1.2148.3046-1.96191 1.526-1.67993 2.7462l.09338-.0215c-.27022-1.1694.44573-2.3398 1.60986-2.6318zm26.15854-6.56043-26.15854 6.56043.02331.0929 26.15853-6.56038zm-25.4883 24.25443c-.22041-.0767-.39759-.2614-.45397-.5054l-.09337.0216c.0641.2774.26564.4872.51584.5743zm-.45397-.5054-3.26431-14.1262-.09337.0216 3.26431 14.1262zm-3.26431-14.1262c-.45429-1.9659.74935-3.9336 2.70646-4.4244l-.02331-.093c-2.00778.5036-3.24257 2.5222-2.77652 4.539zm2.70646-4.4244 26.15852-6.56042-.0233-.09295-26.15853 6.56037zm26.15852-6.56042c1.9845-.49769 3.9964.70865 4.4923 2.69356l.0929-.02323c-.5087-2.03629-2.5727-3.27386-4.6085-2.76328zm4.4923 2.69356 1.2722 5.09226.093-.0232-1.2723-5.09229zm1.2722 5.09226c.0043.0173.0079.0345.0109.0517l.0944-.0163c-.0033-.0195-.0075-.0391-.0123-.0586zm.0581.0915h2.1642v-.0958h-2.1642zm2.1642 0c.8167 0 1.6.3244 2.1775.9019l.0677-.0677c-.5955-.5955-1.4031-.93-2.2452-.93zm2.1775.9019c.5774.5775.9019 1.3608.9019 2.1775h.0958c0-.8421-.3345-1.6498-.93-2.2452zm.9019 2.1775v18.1382h.0958v-18.1382zm0 18.1382c0 .8167-.3245 1.6-.9019 2.1775l.0677.0678c.5955-.5955.93-1.4031.93-2.2453zm-.9019 2.1775c-.5775.5775-1.3608.9019-2.1775.9019v.0959c.8421 0 1.6497-.3346 2.2452-.93zm-2.1775.9019h-30.02196v.0959h30.02196zm-30.02196 0c-.8167 0-1.59995-.3244-2.17745-.9019l-.06776.0678c.59547.5954 1.40309.93 2.24521.93zm-2.17745-.9019c-.57749-.5775-.90192-1.3608-.90192-2.1775h-.09584c0 .8422.33453 1.6498.93 2.2453zm-.90192-2.1775v-3.4333h-.09584v3.4333zm33.10133-20.0625h-30.02196v.0958h30.02196zm1.3607.5636c-.3609-.3609-.8503-.5636-1.3607-.5636v.0958c.4849 0 .95.1927 1.2929.5356zm.5636 1.3607c0-.5104-.2027-.9998-.5636-1.3607l-.0678.0678c.3429.3429.5356.8079.5356 1.2929zm0 .9382v-.9382h-.0958v.9382zm-33.82263.0479h33.77473v-.0959h-33.77473zm-.04792-.9861v.9382h.09583v-.9382zm.56361-1.3607c-.36087.3609-.56361.8503-.56361 1.3607h.09583c0-.485.19264-.95.53554-1.2929zm1.36068-.5636c-.51035 0-.99981.2027-1.36068.5636l.06776.0678c.34291-.3429.80798-.5356 1.29292-.5356zm0 21.9868h30.02196v-.0958h-30.02196zm-1.36068-.5636c.36087.3609.85032.5636 1.36068.5636v-.0958c-.48494 0-.95001-.1926-1.29292-.5355zm-.56361-1.3607c0 .5104.20274.9999.56361 1.3607l.06776-.0677c-.3429-.3429-.53554-.808-.53554-1.293zm0-15.9491v15.9491h.09583v-15.9491zm33.82265-.0479h-33.77473v.0958h33.77473zm.0479 15.997v-15.9491h-.0958v15.9491zm-.5636 1.3607c.3609-.3608.5636-.8503.5636-1.3607h-.0958c0 .485-.1927.9501-.5356 1.293zm-1.3607.5636c.5104 0 .9998-.2027 1.3607-.5636l-.0678-.0677c-.3429.3429-.808.5355-1.2929.5355zm-.9537-14.1704h-25.3156v.0958h25.3156zm.4084-.1692c-.1083.1083-.2552.1692-.4084.1692v.0958c.1786 0 .3499-.0709.4762-.1972zm.1692-.4083c0 .1531-.0609.3-.1692.4083l.0678.0678c.1263-.1263.1972-.2976.1972-.4761zm-.1692-.4084c.1083.1083.1692.2552.1692.4084h.0958c0-.1786-.0709-.3499-.1972-.4762zm-.4084-.1692c.1532 0 .3001.0609.4084.1692l.0678-.0678c-.1263-.1263-.2976-.1972-.4762-.1972zm-25.3156 0h25.3156v-.0958h-25.3156zm-.4084.1692c.1083-.1083.2552-.1692.4084-.1692v-.0958c-.1786 0-.3499.0709-.4762.1972zm-.1692.4084c0-.1532.0609-.3001.1692-.4084l-.0678-.0678c-.1263.1263-.1972.2976-.1972.4762zm.1692.4083c-.1083-.1083-.1692-.2552-.1692-.4083h-.0958c0 .1785.0709.3498.1972.4761zm.4084.1692c-.1532 0-.3001-.0609-.4084-.1692l-.0678.0678c.1263.1263.2976.1972.4762.1972zm3.7528 8.7577h-6.8801v.0958h6.8801zm.4761.1972c-.1263-.1263-.2975-.1972-.4761-.1972v.0958c.1532 0 .3001.0609.4084.1692zm.1973.4761c0-.1785-.071-.3498-.1973-.4761l-.0677.0678c.1083.1083.1691.2552.1691.4083zm-.1973.4762c.1263-.1263.1973-.2976.1973-.4762h-.0959c0 .1532-.0608.3001-.1691.4084zm-.4761.1972c.1786 0 .3498-.0709.4761-.1972l-.0677-.0678c-.1083.1083-.2552.1692-.4084.1692zm-6.8801 0h6.8801v-.0958h-6.8801zm-.4761-.1972c.1263.1263.2976.1972.4761.1972v-.0958c-.1531 0-.3-.0609-.4083-.1692zm-.19723-.4762c0 .1786.07094.3499.19723.4762l.0678-.0678c-.1083-.1083-.1692-.2552-.1692-.4084zm.19723-.4761c-.12629.1263-.19723.2976-.19723.4761h.09583c0-.1531.0609-.3.1692-.4083zm.4761-.1972c-.1785 0-.3498.0709-.4761.1972l.0678.0678c.1083-.1083.2552-.1692.4083-.1692zm0-8.6619c.3719 0 .6734-.3015.6734-.6733h-.0958c0 .3189-.2586.5775-.5776.5775zm-.67333-.6733c0 .3718.30143.6733.67333.6733v-.0958c-.3189 0-.5775-.2586-.5775-.5775zm.67333-.6734c-.3719 0-.67333.3015-.67333.6734h.09583c0-.319.2586-.5776.5775-.5776zm.6734.6734c0-.3719-.3015-.6734-.6734-.6734v.0958c.319 0 .5776.2586.5776.5776zm28.0977 7.4592h-5.0037v.0959h5.0037zm.4761.1973c-.1262-.1263-.2975-.1973-.4761-.1973v.0959c.1532 0 .3001.0608.4084.1691zm.1973.4761c0-.1786-.071-.3499-.1973-.4761l-.0677.0677c.1083.1083.1691.2552.1691.4084zm0 3.7528v-3.7528h-.0959v3.7528zm-.1973.4761c.1263-.1263.1973-.2976.1973-.4761h-.0959c0 .1531-.0608.3-.1691.4083zm-.4761.1972c.1786 0 .3499-.0709.4761-.1972l-.0677-.0678c-.1083.1083-.2552.1692-.4084.1692zm-5.0037 0h5.0037v-.0958h-5.0037zm-.4761-.1972c.1263.1263.2975.1972.4761.1972v-.0958c-.1532 0-.3001-.0609-.4084-.1692zm-.1973-.4761c0 .1785.071.3498.1973.4761l.0677-.0678c-.1083-.1083-.1691-.2552-.1691-.4083zm0-3.7528v3.7528h.0959v-3.7528zm.1973-.4761c-.1263.1262-.1973.2975-.1973.4761h.0959c0-.1532.0608-.3001.1691-.4084zm.4761-.1973c-.1786 0-.3498.071-.4761.1973l.0677.0677c.1083-.1083.2552-.1691.4084-.1691zm4.3782 3.7528h-3.7527v.0958h3.7527zm-.0479-2.4539v2.5018h.0958v-2.5018zm-3.7048.0479h3.7527v-.0959h-3.7527zm.0479 2.4539v-2.5018h-.0958v2.5018z"/></g></svg>