<svg fill="none" viewBox="0 0 46 46" xmlns="http://www.w3.org/2000/svg"><path d="m39.6145 21.8811c-.0368-.1744-.1425-.3267-.2935-.4218-1.3986-.8849-3.2795-.7069-4.4727.4225l-2.2027 2.0875-1.2243.5816-2.4056 1.1387c-.2872-.3518-.7332-.5748-1.2227-.5748h-7.8574l-1.8334-.6959c-.9856-.378-2.0663-.4741-3.1266-.2761l-3.8355.7256c-.9091.1697-1.72828.6102-2.36167 1.2668-.08192.0819-.15512.1639-.22704.2516l-2.46293 2.999-1.01071-.9589c-.25477-.2412-.65403-.2412-.9088 0l-3.962873 3.7584c-.1315797.1245-.206077.298-.206077.4792 0 .1813.0744974.3542.205754.4793l10.567646 10.0258c.1277.1207.2912.1813.4547.1813s.327-.0606.4544-.1813l3.9629-3.7584c.1316-.1245.2061-.298.2061-.4792s-.0745-.3548-.2061-.4792l-1.5072-1.43.4746-.7488c.1744-.2748.4869-.4393.8359-.4393h9.0219c.9656 0 1.9227-.3102 2.6945-.8733l7.0588-5.1503c.4109-.298.7531-.6541 1.0127-1.052l4.2799-6.3732c.0993-.1481.1348-.3303.098-.5048zm-28.3864 19.8992-9.60786-9.1158 3.00311-2.8483 2.20323 2.0905 6.00762 5.7018c.0016.0015.0038.002.0055.0035l1.3912 1.32zm22.9072-13.7507c-.1761.2696-.407.5095-.6883.7134l-7.0604 5.1516c-.5476.3992-1.2281.6192-1.916.6192h-9.0219c-.804 0-1.5335.3934-1.9518 1.0532l-.3354.5292-4.05961-3.8515-2.05238-1.9479 2.52452-3.0735c.04515-.0561.09063-.1057.14803-.1638.44864-.465 1.02234-.7733 1.66184-.8927l3.8355-.7256c.8195-.1541 1.6521-.0793 2.412.2116l1.9485.7398c.0748.0284.1545.0432.2345.0432h7.9786c.107 0 .2035.0535.2377.169.0096.0316.0196.0613.0283.1045.1948.8907-.2525 1.626-1.3267 2.1839-.4802.2458-1.0817.4567-1.787.6257l-1.0294.2438c-.573.1352-1.1097.2619-1.6119.3837-3.5188.8379-5.2831 1.2539-5.2831 1.2539-.3551.0839-.5751.4399-.4912.7947.0716.3044.3428.5089.6421.5089.0503 0 .1013-.0058.1522-.0174 0 0 1.7641-.4167 5.2855-1.2552l.0013-.0006c.5011-.1206 1.0371-.2477 1.6089-.3825l1.0323-.2445c.8085-.1941 1.5093-.4412 2.0856-.7366 1.8064-.9378 2.1303-2.2078 2.0838-3.1075l2.5641-1.214.0008-.0006 1.3211-.6276c.0629-.0297.1203-.0696.1709-.1174l2.2785-2.1591c.5921-.5605 1.4522-.7517 2.2272-.5421z" fill="#2a3a52"/><g clip-rule="evenodd"><path d="m42.1487 8c1.5756 0 2.8591 1.28647 2.8591 2.8622v16.984c0 1.5757-1.2835 2.8632-2.8591 2.8632l-7.0745.0003c-.0682.0002-.1358-.013-.1989-.039s-.1205-.0642-.1687-.1125c-.0483-.0483-.0865-.1056-.1125-.1687s-.0392-.1307-.039-.199c.0003-.0679.0139-.135.0402-.1977.0262-.0626.0645-.1195.1127-.1673s.1054-.0857.1682-.1114c.0628-.0258.1301-.0389.198-.0386l7.0745-.0003c1.0205 0 1.829-.8083 1.829-1.829v-16.984c0-1.02072-.8085-1.82802-1.829-1.82802h-23.7509c-1.0206 0-1.825.80729-1.825 1.82802v12.3841c-.0005.1365-.0549.2672-.1514.3637-.0965.0964-.2272.1509-.3636.1514-.1372.0005-.2689-.0534-.3663-.15-.0973-.0966-.1523-.2279-.1528-.3651v-12.3841c0-1.57573 1.2835-2.8622 2.8591-2.8622zm-2.1027 4.6569c.1371.0005.2684.0555.365.1529.0966.0973.1506.2291.15.3662-.0005.1364-.0549.2671-.1514.3636s-.2272.1509-.3636.1515h-19.5415c-.1371.0005-.2688-.0535-.3662-.1501-.0973-.0965-.1523-.2279-.1529-.365-.0002-.0682.013-.1359.039-.199s.0642-.1204.1125-.1687c.0482-.0482.1056-.0864.1687-.1124s.1307-.0393.1989-.039zm0 3.2827c.1371.0006.2684.0556.365.1529.0966.0974.1506.2291.15.3662-.0005.1365-.0549.2672-.1514.3637-.0965.0964-.2272.1509-.3636.1514h-19.5415c-.1371.0005-.2688-.0534-.3662-.15-.0973-.0966-.1523-.2279-.1529-.3651-.0002-.0682.013-.1358.039-.1989s.0642-.1205.1125-.1687c.0482-.0483.1056-.0865.1687-.1125s.1307-.0392.1989-.039z" fill="#2a3a52" fill-rule="evenodd"/><path d="m27.6895 19.4129c.1371.0005.2684.0555.365.1528.0966.0974.1505.2291.15.3663-.0005.1364-.055.2671-.1514.3636-.0965.0965-.2272.1509-.3636.1514h-6.0317c-.1371.0006-.2689-.0534-.3662-.15-.0974-.0966-.1524-.2279-.1529-.365-.0003-.0683.013-.1359.039-.199s.0642-.1204.1124-.1687c.0483-.0482.1056-.0865.1687-.1125s.1308-.0392.199-.0389z" fill="#2a3a52" fill-rule="evenodd"/><g stroke="#2a3a52" stroke-width=".320966"><path d="m42.1487 8c1.5756 0 2.8591 1.28647 2.8591 2.8622v16.984c0 1.5757-1.2835 2.8632-2.8591 2.8632l-7.0745.0003c-.0682.0002-.1358-.013-.1989-.039s-.1205-.0642-.1687-.1125c-.0483-.0483-.0865-.1056-.1125-.1687s-.0392-.1307-.039-.199c.0003-.0679.0139-.135.0402-.1977.0262-.0626.0645-.1195.1127-.1673s.1054-.0857.1682-.1114c.0628-.0258.1301-.0389.198-.0386l7.0745-.0003c1.0205 0 1.829-.8083 1.829-1.829v-16.984c0-1.02072-.8085-1.82802-1.829-1.82802h-23.7509c-1.0206 0-1.825.80729-1.825 1.82802v12.3841c-.0005.1365-.0549.2672-.1514.3637-.0965.0964-.2272.1509-.3636.1514-.1372.0005-.2689-.0534-.3663-.15-.0973-.0966-.1523-.2279-.1528-.3651v-12.3841c0-1.57573 1.2835-2.8622 2.8591-2.8622zm-2.1027 4.6569c.1371.0005.2684.0555.365.1529.0966.0973.1506.2291.15.3662-.0005.1364-.0549.2671-.1514.3636s-.2272.1509-.3636.1515h-19.5415c-.1371.0005-.2688-.0535-.3662-.1501-.0973-.0965-.1523-.2279-.1529-.365-.0002-.0682.013-.1359.039-.199s.0642-.1204.1125-.1687c.0482-.0482.1056-.0864.1687-.1124s.1307-.0393.1989-.039zm0 3.2827c.1371.0006.2684.0556.365.1529.0966.0974.1506.2291.15.3662-.0005.1365-.0549.2672-.1514.3637-.0965.0964-.2272.1509-.3636.1514h-19.5415c-.1371.0005-.2688-.0534-.3662-.15-.0973-.0966-.1523-.2279-.1529-.3651-.0002-.0682.013-.1358.039-.1989s.0642-.1205.1125-.1687c.0482-.0483.1056-.0865.1687-.1125s.1307-.0392.1989-.039z"/><path d="m27.6895 19.4129c.1371.0005.2684.0555.365.1528.0966.0974.1505.2291.15.3663-.0005.1364-.055.2671-.1514.3636-.0965.0965-.2272.1509-.3636.1514h-6.0317c-.1371.0006-.2689-.0534-.3662-.15-.0974-.0966-.1524-.2279-.1529-.365-.0003-.0683.013-.1359.039-.199s.0642-.1204.1124-.1687c.0483-.0482.1056-.0865.1687-.1125s.1308-.0392.199-.0389z"/></g></g><path d="m31.1598 20.0018c0 .3979-.3226.7205-.7205.7205-.398 0-.7205-.3226-.7205-.7205 0-.398.3225-.7206.7205-.7206.3979 0 .7205.3226.7205.7206zm2.7109 0c0 .3979-.3226.7205-.7205.7205s-.7205-.3226-.7205-.7205c0-.398.3226-.7206.7205-.7206s.7205.3226.7205.7206z" fill="#2a3a52"/></svg>