<svg fill="none" viewBox="0 0 46 46" xmlns="http://www.w3.org/2000/svg"><g fill="#2a3a52"><path clip-rule="evenodd" d="m24.8698 40.5755h-19.76563c-1.53125 0-2.77605-1.2448-2.77605-2.7812v-10.4427c0-1.5313 1.2448-2.7761 2.77605-2.7761h5.02083c-.0036-.0562-.0074-.1122-.0112-.1681-.0179-.2655-.0357-.5287-.0357-.7954 0-2.224.4427-4.3438 1.224-6.2917.003-.0091.0056-.0178.0082-.0263.0061-.0206.012-.0401.023-.0622 2.5261-6.1979 8.6094-10.58336 15.7084-10.58336 7.0833 0 13.1562 4.37496 15.6875 10.55726.0312.0521.0468.1094.0625.1719.7656 1.9375 1.2031 4.0365 1.2031 6.2396 0 2.1667-.4115 4.2864-1.2188 6.3021-.0052.013-.0104.0247-.0156.0364s-.0104.0235-.0156.0365c-2.5469 6.2917-8.5625 10.4427-15.3385 10.5781-.0938.0104-.2239.0104-.3645.0104h-.0001c-.5573 0-1.0677-.026-1.5573-.0781-.1979.0417-.4011.0729-.6146.0729zm10.9583-10.25c-.8906 3.7031-2.4791 6.6459-4.4375 8.4115 4.3177-1.2344 7.9323-4.2604 9.875-8.4115zm5.9427-1.2083c.6615-1.7656 1.0105-3.6146 1.0105-5.5 0-1.9375-.3646-3.7917-1.0105-5.5052h-5.6614c.3229 1.7187.5052 3.5677.5052 5.5052 0 1.8958-.1823 3.7396-.5261 5.5zm-5.9114-12.2188h5.401c-1.9114-4.0312-5.4739-7.12496-9.8177-8.3958 1.9792 1.7813 3.5469 4.7344 4.4167 8.3958zm-1.2656.0052c-1.2605-5.0104-3.875-8.56245-6.9532-8.97912v8.97912zm.2708 1.2084h-7.2188v11.0052h7.2084c.3593-1.75.5468-3.5938.5468-5.5 0-1.9375-.1927-3.7865-.5364-5.5052zm-7.224 19.6927v.0208h-.0052v1.4896c2.9948-.4219 5.6459-3.8698 6.9427-8.9844h-6.9375zm-1.2135-12.7431v-6.9496h-7.224c-.3385 1.7135-.5364 3.5677-.5364 5.5052 0 .2145.0092.4267.0184.6397.0047.1076.0093.2154.0128.3238h6.1719c.5759 0 1.1104.1809 1.5573.4809zm.0052-8.1632v-8.97392c-3.0781.42187-5.6927 3.97392-6.9531 8.97392zm-8.1875 0c.8958-3.6562 2.5-6.6354 4.5-8.42184-4.3958 1.25-8 4.35934-9.9271 8.42184zm-.2604 1.2136h-5.6823c-.6406 1.7135-1.0104 3.5677-1.0156 5.5052 0 .2667.0177.5299.0357.7954.0037.0559.0075.1119.0111.1681h6.1563c-.0035-.1084-.0082-.2162-.0128-.3238-.0093-.213-.0185-.4252-.0185-.6397 0-1.9271.1875-3.7761.5261-5.5052zm-12.88023 7.6823c-.85938 0-1.5625.6979-1.5625 1.5625v1.7333h22.89063v-1.7437c-.0052-.8542-.7031-1.5521-1.5625-1.5521zm10.63403 4.5364-12.19653-.0322v7.5062c0 .8594.69791 1.5625 1.5625 1.5625h19.76563c.8594 0 1.5573-.6927 1.5625-1.5521v-7.5166zm-5.1523 6.5104h-4.22392c-.33854 0-.60417-.2708-.60417-.6041 0-.3334.27084-.6042.60417-.6042h4.22392c.3334 0 .6042.2708.6042.6042 0 .3333-.2708.6041-.6042.6041z" fill-rule="evenodd"/><path d="m10.125 24.5755v.1042h.1111l-.0071-.1109zm-.0112-.1681.1039-.007zm1.1883-7.0871.0968.0389.002-.006zm.0082-.0263-.0998-.0298zm.023-.0622.0935.0467.003-.0074zm31.3959-.0261-.0964.0395.003.0073.0041.0068zm.0625.1719-.102.0255.0051.0128zm-.0157 12.5417-.0967-.0388v.0001zm-.0156.0364.0952.0423zm-.0156.0365.0966.0391.0001-.0004zm-15.3385 10.5781-.0021-.1046-.0095.0011zm-1.9219-.0677.011-.1036-.0164-.0017-.0161.0034zm5.9062-1.7656-.0697-.0774.0984.1775zm4.4375-8.4115v-.1041h-.0821l-.0192.0798zm5.4375 0 .0944.0442.0694-.1483h-.1638zm.5052-1.2083v.1042h.0723l.0253-.0677zm0-11.0052.0975-.0368-.0254-.0674h-.0721zm-5.6614 0v-.1042h-.1256l.0232.1234zm-.0209 11.0052-.1022-.02-.0242.1242h.1264zm5.1719-12.2188v.1042h.1647l-.0706-.1488zm-5.401 0-.1014.0241.0191.0801h.0823zm-4.4167-8.3958.0293-.09997-.099.1774zm-3.8021-.57812.014-.10323-.1181-.01599v.11922zm6.9532 8.97912v.1042h.1336l-.0326-.1296zm-6.9532 0h-.1041v.1042h.1041zm.0052 1.2084v-.1042h-.1041v.1042zm7.2188 0 .1021-.0204-.0167-.0838h-.0854zm-7.2188 11.0052h-.1041v.1042h.1041zm7.2084 0v.1042h.0849l.0171-.0833zm-7.2136 8.7083v.1042h.1042v-.1042zm-.0052 0v-.1041h-.1041v.1041zm0 1.4896h-.1041v.1199l.1187-.0167zm6.9427-8.9844.101.0256.0329-.1297h-.1339zm-6.9375 0v-.1041h-.1041v.1041zm-1.2135-12.2187h.1042v-.1042h-.1042zm0 6.9496-.0581.0865.1623.1089v-.1954zm-7.224-6.9496v-.1042h-.0856l-.0166.084zm-.518 6.1449-.1041.0045zm.0128.3238-.1041.0034.0033.1008h.1008zm7.7344-16.65622h.1042v-.11942l-.1184.01622zm0 8.97392v.1042h.1042v-.1042zm-6.9531 0-.101-.0254-.0327.1296h.1337zm3.2656-8.42184.0694.07769-.0979-.17788zm-4.5 8.42184v.1042h.0817l.0195-.0794zm-5.4271 0-.0941-.0446-.0706.1488h.1647zm-.5156 1.2136v-.1042h-.0723l-.0253.0677zm5.6823 0 .1022.02.0243-.1242h-.1265zm-6.6979 5.5052-.1042-.0003v.0003zm.0357.7954.1039-.007zm.0111.1681-.1039.0067.0063.0975h.0976zm6.1563 0v.1042h.1076l-.0035-.1075zm-.0128-.3238-.1041.0045zm-13.93513 4.8332h-.10417v.1042h.10417zm22.89063 0v.1042h.1042v-.1042zm0-1.7437h.1042v-.0007zm-22.89063 2.9521.00027-.1042-.10444-.0003v.1045zm12.19653.0322-.0003.1042h.0006zm10.6941 7.4844.1042.0006v-.0006zm0-7.5166h.1042v-.1045l-.1045.0003zm-21.32813 10.3812h19.76563v-.2083h-19.76563zm-2.88021-2.8854c0 1.5938 1.2913 2.8854 2.88021 2.8854v-.2083c-1.4736 0-2.67188-1.1981-2.67188-2.6771zm0-10.4427v10.4427h.20833v-10.4427zm2.88021-2.8802c-1.58878 0-2.88021 1.2914-2.88021 2.8802h.20833c0-1.4738 1.19816-2.6719 2.67188-2.6719zm5.02083 0h-5.02083v.2083h5.02083zm-.1151-.057c.0038.0559.0075.1118.0111.1678l.208-.0134c-.0037-.0564-.0075-.1125-.0113-.1684zm-.03594-.8024c0 .2708.01804.5375.03594.8024l.2078-.014c-.0179-.2661-.0354-.5258-.0354-.7884zm1.23144-6.3305c-.7859 1.9596-1.23144 4.0926-1.23144 6.3305h.20834c0-2.21.4399-4.3167 1.2165-6.2529zm.0051-.0173c-.0026.0086-.0048.0158-.0072.0232l.1976.0658c.0036-.0108.0067-.021.0092-.0293zm.0297-.079c-.0156.0311-.0237.0587-.0297.079l.1996.0597c.0062-.0209.0099-.0324.0164-.0455zm15.8015-10.64093c-7.143 0-13.2634 4.41263-15.8048 10.64823l.1929.0786c2.5107-6.1603 8.5569-10.5185 15.6119-10.5185zm15.7839 10.62203c-2.5466-6.2199-8.6566-10.62203-15.7839-10.62203v.20833c7.0393 0 13.0752 4.3478 15.5911 10.4926zm.0671.186c-.0154-.0618-.034-.1332-.0742-.2002l-.1786.1072c.0223.0372.0349.0804.0507.1436zm1.2063 6.2649c0-2.2171-.4403-4.329-1.2105-6.2779l-.1937.0766c.7611 1.9261 1.1958 4.0121 1.1958 6.2013zm-1.2263 6.3408c.8122-2.0278 1.2263-4.1608 1.2263-6.3408h-.2084c0 2.1533-.4089 4.2599-1.2113 6.2633zm-.0171.04c.0052-.0115.0111-.025.0172-.04l-.1935-.0774c-.0043.0109-.0088.0209-.0141.0328zm-.0141.0329c.0044-.011.0088-.021.0141-.0329l-.1903-.0846c-.0052.0115-.0112.025-.0172.0401zm-15.4332 10.6436c6.8179-.1363 12.8706-4.313 15.4331-10.6432l-.1932-.0782c-2.5312 6.2532-8.5098 10.3785-15.244 10.5131zm-.3665.0104c.1382 0 .2751.0001.376-.0111l-.0231-.207c-.0866.0096-.2099.0098-.3529.0098zm-.0001 0h.0001v-.2083h-.0001zm-1.5683-.0787c.4936.0525 1.0077.0787 1.5683.0787v-.2083c-.554 0-1.0607-.0259-1.5463-.0776zm-.6036.0735c.2236 0 .4345-.0327.636-.0752l-.0429-.2038c-.1943.0409-.3896.0707-.5931.0707zm6.5906-1.8654c1.9788-1.784 3.5752-4.7483 4.469-8.4644l-.2026-.0487c-.8874 3.6901-2.468 6.6112-4.4059 8.3584zm9.7109-8.5329c-1.9298 4.1234-5.5202 7.1292-9.8093 8.3554l.0573.2003c4.3463-1.2425 7.985-4.2887 9.9407-8.4674zm-5.3432.1483h5.4375v-.2083h-5.4375zm6.849-6.8125c0 1.8724-.3465 3.709-1.0038 5.4634l.1951.0731c.6656-1.7768 1.017-3.6381 1.017-5.5365zm-1.0037-5.4685c.6416 1.7024 1.0037 3.5442 1.0037 5.4685h.2083c0-1.9507-.3671-3.8173-1.0171-5.542zm-5.564.0674h5.6614v-.2083h-5.6614zm.6094 5.4011c0-1.944-.1829-3.7994-.507-5.5245l-.2048.0385c.3217 1.7125.5034 3.555.5034 5.486zm-.528 5.5199c.345-1.767.528-3.6174.528-5.5199h-.2084c0 1.8892-.1816 3.7262-.5241 5.48zm5.58-.1241h-5.6823v.2084h5.6823zm-.5104-12.2187h-5.401v.2083h5.401zm-9.8469-8.19172c4.3147 1.26235 7.8539 4.33562 9.7528 8.34052l.1882-.0893c-1.9239-4.0577-5.5098-7.17186-9.8825-8.45117zm4.5472 8.27182c-.8728-3.6744-2.4484-6.6493-4.4483-8.44922l-.1394.15485c1.9585 1.76257 3.5183 4.69387 4.385 8.34247zm-8.334-8.8467c1.5026.20341 2.9036 1.17392 4.0893 2.7269 1.1853 1.5525 2.149 3.6792 2.7767 6.1745l.2021-.0509c-.6327-2.5151-1.6065-4.6696-2.8132-6.25-1.2062-1.57981-2.6516-2.59369-4.227-2.80695zm.1181 8.8759v-8.97912h-.2083v8.97912zm6.849-.1041h-6.9532v.2083h6.9532zm-6.948 1.4166h7.2188v-.2083h-7.2188zm.1042 9.1146v-9.2187h-.2083v9.2187zm0 .0209v-.0209h-.2083v.0209zm0 1.7656v-1.7656h-.2083v1.7656zm7.1042-.1042h-7.2084v.2084h7.2084zm.4427-5.3958c0 1.8994-.1869 3.7361-.5448 5.479l.2041.0419c.3608-1.7571.549-3.6078.549-5.5209zm-.5345-5.4848c.3425 1.712.5345 3.5542.5345 5.4848h.2083c0-1.9444-.1934-3.8002-.5385-5.5256zm-7.0176 19.6931v-.0208h-.2083v.0208zm-.1094.1042h.0052v-.2083h-.0052zm.1042 1.3854v-1.4896h-.2083v1.4896zm6.7376-9.01c-.6459 2.5472-1.6277 4.6739-2.8162 6.2139-1.1889 1.5407-2.5784 2.487-4.0401 2.693l.0291.2063c1.533-.216 2.9664-1.2046 4.176-2.772 1.21-1.568 2.2021-3.7226 2.8531-6.29zm-6.8366.1298h6.9375v-.2083h-6.9375zm.1042 7.3698v-7.474h-.2083v7.474zm-1.4219-19.6927v6.9496h.2084v-6.9496zm-7.1198.1041h7.224v-.2083h-7.224zm-.4323 5.4011c0-1.9305.1972-3.7779.5345-5.485l-.2044-.0404c-.3398 1.7199-.5384 3.5808-.5384 5.5254zm.0184.6352c-.0093-.2134-.0184-.4233-.0184-.6352h-.2083c0 .2171.0093.4316.0185.6442zm.0128.325c-.0035-.1091-.0082-.2175-.0128-.325l-.2082.009c.0047.1077.0093.2149.0128.3227zm6.0678-.1008h-6.1719v.2083h6.1719zm1.6153.4985c-.4627-.3106-1.0172-.4985-1.6153-.4985v.2083c.5537 0 1.0682.1738 1.4992.4632zm-.157-17.05062v8.97392h.2084v-8.97392zm-6.7479 8.99942c.6277-2.4901 1.5914-4.6142 2.7767-6.166 1.1857-1.55239 2.5868-2.52425 4.0895-2.73022l-.0283-.2064c-1.5753.21591-3.0206 1.23103-4.2268 2.81012-1.2066 1.5797-2.1804 3.7316-2.8131 6.2416zm6.8521-.1296h-6.9531v.2083h6.9531zm-3.7569-8.39542c-2.0206 1.80492-3.6328 4.80562-4.5318 8.47472l.2024.0496c.8926-3.6433 2.4888-6.6009 4.4682-8.36895zm-9.7636 8.54422c1.9145-4.0359 5.495-7.12468 9.8615-8.36634l-.057-.20039c-4.4252 1.25834-8.053 4.38823-9.9927 8.47743zm5.333-.1488h-5.4271v.2083h5.4271zm-5.9427 1.4218h5.6823v-.2083h-5.6823zm-.9115 5.4014c.0052-1.9244.3725-3.7663 1.0091-5.469l-.1952-.073c-.6446 1.7243-1.017 3.5907-1.0222 5.5414zm.0355.7881c-.018-.2661-.0355-.5258-.0355-.7884h-.2083c0 .2708.018.5375.0359.8024zm.0112.1684c-.0037-.0563-.0074-.1125-.0112-.1684l-.2079.014c.0038.056.0076.1118.0112.1678zm6.0523-.0974h-6.1563v.2083h6.1563zm-.1169-.2152c.0047.1077.0093.2149.0128.3227l.2082-.0067c-.0035-.1091-.0082-.2175-.0129-.3251zm-.0185-.6442c0 .2171.0093.4316.0185.6442l.2081-.0091c-.0092-.2133-.0183-.4232-.0183-.6351zm.528-5.5252c-.3399 1.7357-.528 3.5914-.528 5.5252h.2083c0-1.9204.1869-3.7626.5241-5.4852zm-14.23637 9.2648c0-.8069.65627-1.4584 1.45834-1.4584v-.2083c-.91668 0-1.66667.7443-1.66667 1.6667zm0 1.7333v-1.7333h-.20833v1.7333zm22.78647-.1041h-22.89063v.2083h22.89063zm-.1042-1.6396v1.7437h.2084v-1.7437zm-1.4583-1.448c.8019 0 1.4535.6516 1.4583 1.4486l.2084-.0013c-.0056-.9113-.7499-1.6556-1.6667-1.6556zm-19.76563 0h19.76563v-.2083h-19.76563zm-1.56278 4.5042 12.19651.0323.0006-.2083-12.19656-.0323zm.10444.1063v-.2104h-.20833v.2104zm0 7.2958v-7.2958h-.20833v7.2958zm1.45834 1.4583c-.80683 0-1.45834-.6562-1.45834-1.4583h-.20833c0 .9167.74433 1.6667 1.66667 1.6667zm19.76563 0h-19.76563v.2084h19.76563zm1.4583-1.4485c-.0048.802-.6561 1.4485-1.4583 1.4485v.2084c.9166 0 1.6611-.7389 1.6667-1.6557zm0-7.3056v7.3062h.2084v-7.3062zm0-.2104v.2104h.2084v-.2104zm-10.5896.1364 10.6941-.0323-.0006-.2083-10.6941.0323zm-9.37652 6.5104h4.22392v-.2083h-4.22392zm-.70833-.7083c0 .3903.31167.7083.70833.7083v-.2083c-.28043 0-.5-.2236-.5-.5zm.70833-.7084c-.39086 0-.70833.3175-.70833.7084h.20833c0-.2758.22419-.5.5-.5zm4.22392 0h-4.22392v.2084h4.22392zm.7084.7084c0-.3909-.3175-.7084-.7084-.7084v.2084c.2758 0 .5.2242.5.5zm-.7084.7083c.3909 0 .7084-.3175.7084-.7083h-.2084c0 .2758-.2242.5-.5.5z"/></g></svg>