<svg fill="none" viewBox="0 0 36 36" xmlns="http://www.w3.org/2000/svg"><g stroke="#2a3a52" stroke-linecap="round" stroke-linejoin="round" stroke-width="1.5"><path d="m12.6641 13.1094h15.4074m-15.4074 4.7422h15.4074m-15.4074 4.7422h15.4074m-23.70431 7.1099c.62866 0 1.23157-.2497 1.6761-.6943.44453-.4445.69427-1.0474.69427-1.6761v-20.14811c0-.31434.12487-.61579.34713-.83806.22227-.22226.52372-.34713.83805-.34713h24.88886c.3144 0 .6158.12487.8381.34713.2223.22227.3471.52372.3471.83806v20.14811c0 .6287-.2497 1.2316-.6942 1.6761-.4446.4446-1.0475.6943-1.6762.6943z"/><path d="m4.37037 29.7052c-.62866 0-1.23157-.2498-1.6761-.6943-.44454-.4445-.69427-1.0475-.69427-1.6761v-16.5926"/></g></svg>