<svg viewBox="0 0 36 36" fill="none" xmlns="http://www.w3.org/2000/svg"><path fill-rule="evenodd" clip-rule="evenodd" d="M4.63933 5.70183c.08922-.08921.21022-.13933.33639-.13933H31.9415c.1261 0 .2471.05012.3363.13933.0892.08922.1394.21022.1394.33639V29.339l-3.8175-1.9087c-.2111-.1056-.4597-.1056-.6708 0l-4.5675 2.2837-4.5674-2.2837c-.2112-.1056-.4597-.1056-.6708 0l-4.5675 2.2837-4.56743-2.2837c-.21114-.1056-.45967-.1056-.67082 0L4.5 29.339V6.03822c0-.12617.05012-.24717.13933-.33639zm.33639-1.63933c-.524 0-1.02653.20816-1.39705.57867C3.20816 5.01169 3 5.51422 3 6.03822V30.5525c0 .26.13459.5014.3557.638.22111.1367.49722.1491.72971.0328l4.56745-2.2837 4.56744 2.2837c.2112.1056.4597.1056.6708 0l4.5675-2.2837 4.5674 2.2837c.2112.1056.4597.1056.6709 0l4.5674-2.2837 4.5675 2.2837c.2324.1163.5086.1039.7297-.0328.2211-.1366.3557-.378.3557-.638V6.03822c0-.524-.2082-1.02653-.5787-1.39705-.3705-.37051-.8731-.57867-1.397-.57867H4.97572zm12.33538 7.3703c-2.6165 0-4.7377 2.1211-4.7377 4.7377s2.1212 4.7377 4.7377 4.7377c2.6166 0 4.7377-2.1211 4.7377-4.7377s-2.1211-4.7377-4.7377-4.7377zm-6.3377 4.7377c0-3.5002 2.8375-6.33769 6.3377-6.33769s6.3377 2.83749 6.3377 6.33769c0 1.1898-.3279 2.3031-.8982 3.2543l3.6396 3.1846c.3325.291.3662.7964.0752 1.1289-.2909.3325-.7963.3662-1.1289.0752l-3.5764-3.1293c-1.1442 1.1279-2.7153 1.824-4.449 1.824-3.5002 0-6.3377-2.8375-6.3377-6.3377z" fill="#2A3A52"/></svg>