<svg viewBox="0 0 336 336" fill="none" xmlns="http://www.w3.org/2000/svg"><mask id="a" style="mask-type:alpha" maskUnits="userSpaceOnUse" x="0" y="0" width="336" height="336"><rect width="336" height="336" rx="22" fill="#F5F5F5"/></mask><g clip-path="url(#clip0_788_49013)"><path d="M213.808 127.066v61.791c-2.372.507-4.539 1.71-6.224 3.456-1.684 1.745-2.81 3.954-3.231 6.343h-80.124c-.42-2.39-1.545-4.599-3.23-6.345-1.685-1.746-3.853-2.948-6.226-3.454l.071-94.5546c.003-.5351.217-1.0474.596-1.4258.378-.3783.89-.5922 1.425-.5954h69.841c-.153.6922-.248 1.3959-.283 2.1039l-.438 7.6469c-.152 2.708.476 5.403 1.809 7.766l3.77 6.666c1.327 2.364 3.309 4.293 5.709 5.555l6.772 3.546c2.399 1.264 5.111 1.813 7.813 1.583l1.95-.082zM204.411 202.852h-80.112c-.419 2.391-1.544 4.602-3.228 6.35-1.685 1.747-3.853 2.952-6.227 3.46v38.673c-.002.266.049.53.15.777.101.246.25.471.438.659.187.189.411.339.657.442.246.102.509.155.776.155h94.921c.538 0 1.053-.213 1.434-.592.381-.378.596-.892.599-1.43v-38.755c-2.355-.513-4.505-1.711-6.179-3.444-1.675-1.734-2.798-3.924-3.229-6.295z" fill="#1677FF"/><path d="M213.826 94.3765v32.6925l-1.939.165c-2.702.23-5.413-.319-7.812-1.583l-6.773-3.546c-2.399-1.262-4.382-3.191-5.709-5.555l-3.77-6.666c-1.333-2.363-1.961-5.058-1.808-7.766l.437-7.647c.035-.7079.13-1.4117.284-2.1038h25.092c.531.0031 1.039.2162 1.413.5927.374.3764.585.8857.585 1.4166z" fill="#0F57D2"/><path d="M240.261 105.342l-2.576 7.222c-.926 2.556-2.568 4.792-4.728 6.442l-6.075 4.727c-2.146 1.655-4.723 2.656-7.423 2.884l-5.697.497V94.4213c.002-.2658-.05-.5293-.151-.7753-.101-.2459-.249-.4693-.437-.6573s-.412-.3368-.658-.4378c-.246-.101-.509-.1522-.775-.1507h-25.093c.396-1.948 1.201-3.7894 2.364-5.4014l4.503-6.2052c1.597-2.1889 3.787-3.8746 6.312-4.8578l7.092-2.7775c2.525-.9918 5.284-1.2299 7.942-.6856l7.506 1.5247c2.672.5268 5.135 1.8158 7.091 3.7113l5.496 5.3424c1.945 1.89 3.306 4.2978 3.924 6.938l1.726 7.4698c.634 2.6071.515 5.3411-.343 7.8831z" fill="#AFBBD2"/><path d="M206.356 95.4494c-2.518-1.3356-3.83-3.9358-2.364-6.8079l1.666-3.1558c1.513-2.8721 4.409-3.2503 6.927-1.9266 2.517 1.3238 3.829 3.9359 2.363 6.808l-1.678 3.1321c-1.501 2.8721-4.432 3.2385-6.914 1.9502zm-2.293 12.8476l-3.251-1.714 22.717-17.0433 3.251 1.7138-22.717 17.0435zm7.824-19.3837c.163-.2108.276-.4557.33-.7164.054-.2606.049-.5302-.016-.7885s-.187-.4984-.358-.7025c-.171-.2041-.386-.3667-.629-.4756-1.052-.5437-1.939-.2482-2.577.9692l-1.537 2.8957c-.137.215-.229.4562-.268.7083-.04.2522-.027.5098.038.7566.065.2469.181.4775.34.6773.159.1998.357.3644.583.4835.226.119.474.1899.728.2081.255.0182.511-.0167.751-.1024.241-.0857.461-.2204.646-.3955.186-.1752.333-.387.433-.622l1.536-2.8958zm3.038 25.3647c-2.518-1.336-3.83-3.948-2.364-6.808l1.666-3.156c1.513-2.872 4.409-3.262 6.927-1.927 2.517 1.336 3.829 3.936 2.364 6.808l-1.667 3.144c-1.489 2.849-4.444 3.203-6.926 1.915v.024zm5.531-6.536c.161-.212.272-.457.325-.717.053-.26.047-.529-.018-.787-.064-.257-.186-.497-.356-.701-.17-.204-.383-.368-.624-.478-1.052-.556-1.939-.249-2.589.957l-1.56 2.884c-.165.208-.281.451-.337.711-.057.26-.053.529.011.787s.186.498.358.701c.171.204.386.365.63.472.227.138.482.223.746.248.264.026.531-.009.779-.101.249-.092.474-.239.658-.431.184-.191.323-.421.405-.673l1.572-2.872zM132.227 155.029c.156-.218.381-.376.639-.449.258-.073.533-.056.78.047l.768.367c.555.247 1.128.452 1.714.614.609.17 1.229.3 1.855.39.69.087 1.385.131 2.08.13.768.009 1.535-.046 2.293-.165.529-.09 1.042-.253 1.525-.485.345-.163.639-.416.851-.732.182-.273.277-.595.272-.922.005-.25-.052-.497-.168-.718-.116-.221-.286-.409-.494-.547-.625-.365-1.347-.53-2.068-.473-.431-.001-.861.027-1.289.083l-1.371.165-1.371.178c-.42.049-.842.077-1.264.082-.643-.007-1.282-.094-1.903-.26-.581-.159-1.129-.419-1.62-.768-.46-.337-.84-.774-1.111-1.276-.284-.552-.426-1.165-.413-1.785.003-.4.058-.797.165-1.182.114-.419.294-.818.532-1.182.261-.382.58-.721.946-1.005.416-.337.883-.608 1.382-.803.607-.253 1.242-.432 1.892-.532.803-.142 1.619-.205 2.434-.189.668 0 1.334.036 1.998.106.662.071 1.312.177 1.938.307.619.128 1.231.29 1.832.485.556.172 1.1.377 1.631.615l-1.312 2.363c-.425-.177-.862-.354-1.347-.508-.485-.153-.969-.283-1.501-.402-.532-.118-1.052-.201-1.608-.271-.574-.043-1.15-.055-1.725-.036-.682-.013-1.364.046-2.033.177-.445.089-.874.24-1.277.449-.27.146-.495.362-.65.627-.123.207-.189.444-.189.685.002.215.056.425.159.613.104.188.252.347.432.463.546.321 1.177.469 1.809.426.395-.002.789-.025 1.181-.071l1.336-.154 1.43-.154c.497-.047.969-.071 1.419-.071.797-.012 1.593.087 2.363.296.609.168 1.179.453 1.679.839.438.353.79.802 1.028 1.312.234.545.35 1.133.343 1.726.011.792-.193 1.572-.591 2.257-.422.704-1.016 1.29-1.726 1.702-.814.492-1.705.844-2.635 1.04-1.122.243-2.268.358-3.416.343-.814.003-1.628-.048-2.435-.154-.769-.104-1.53-.254-2.281-.449-.703-.186-1.394-.415-2.069-.685-.628-.258-1.24-.554-1.832-.887l.993-1.572zM157.163 143.914h1.737c.211.006.417.068.595.181.179.112.325.27.422.457l6.027 12.493c.07.173.097.36.081.546-.017.186-.077.365-.176.523-.1.158-.235.29-.395.386-.16.095-.34.152-.526.165h-.638c-.212-.007-.419-.072-.598-.186s-.323-.275-.419-.464l-.567-1.182c-.095-.19-.24-.35-.419-.465-.179-.114-.385-.178-.598-.185h-7.162c-.216-.004-.428.056-.611.171-.183.116-.328.282-.417.479l-.532 1.182c-.097.191-.243.353-.424.467-.181.115-.39.178-.605.183h-.661c-.185-.014-.364-.07-.523-.165-.158-.095-.292-.226-.391-.383-.099-.156-.16-.333-.178-.517-.018-.185.008-.37.075-.543l5.91-12.481c.085-.193.224-.358.4-.476.176-.117.381-.181.593-.186zm3.309 8.191l-1.383-2.931c-.104-.177-.253-.323-.431-.424-.179-.102-.38-.155-.585-.155-.205 0-.407.053-.585.155-.178.101-.327.247-.432.424l-1.359 2.919c-.067.172-.093.358-.075.542.018.185.079.362.178.518.098.157.233.288.391.383.159.095.338.151.523.165h2.742c.189-.012.372-.068.535-.166.162-.097.299-.231.399-.392.099-.161.159-.344.173-.533.014-.189-.017-.378-.091-.552v.047zM170.173 143.914h.745c.313 0 .614.125.835.346.222.222.347.523.347.836v9.869c0 .314.124.614.346.836.222.222.522.346.836.346h6.323c.303.015.589.146.798.367.209.22.325.512.325.815v.366c0 .304-.116.596-.325.816-.209.22-.495.351-.798.366h-9.314c-.313 0-.614-.124-.835-.346-.222-.221-.347-.522-.347-.836v-12.694c.021-.277.139-.538.334-.737.195-.199.453-.323.73-.35zM184.631 143.909h10.295c.158-.011.316.013.464.068.148.056.283.143.395.255.112.112.199.246.254.394.056.148.079.307.069.465v.378c0 .313-.125.614-.346.836-.222.221-.523.346-.836.346h-7.316c-.314 0-.614.124-.836.346-.222.222-.346.522-.346.836v.697c0 .314.124.614.346.836.222.221.522.346.836.346h6.217c.303.015.589.146.798.366.209.22.325.512.325.816v.213c0 .303-.116.595-.325.815-.209.22-.495.351-.798.367h-6.217c-.314 0-.614.124-.836.346-.222.221-.346.522-.346.836v1.855c0 .314.124.614.346.836.222.222.522.346.836.346h7.517c.303 0 .595.116.815.325.22.209.352.495.367.798v.366c0 .314-.125.614-.346.836-.222.222-.523.346-.836.346h-10.508c-.303.001-.595-.116-.815-.325-.22-.209-.351-.494-.366-.798V145.02c.018-.303.152-.588.374-.795.222-.207.516-.32.819-.316z" fill="#fff"/></g><defs><clipPath id="clip0_788_49013"><path fill="#fff" transform="translate(48 48)" d="M0 0h240v240H0z"/></clipPath></defs></svg>