<svg viewBox="0 0 280 280" fill="none" xmlns="http://www.w3.org/2000/svg">
<mask id="mask0_5_7490" style="mask-type:alpha" maskUnits="userSpaceOnUse" x="0" y="0" width="280" height="280">
<rect width="280" height="280" rx="22" fill="#F5F5F5"/>
</mask>
<g mask="url(#mask0_5_7490)">
</g>
<g clip-path="url(#clip0_5_7490)">
<path fill-rule="evenodd" clip-rule="evenodd" d="M143.755 183.43C145.131 182.804 146.508 182.053 147.76 181.177V205.457H147.635C147.384 206.834 146.633 207.96 145.507 208.711C142.378 210.714 138.373 210.714 135.494 208.711C133.492 207.46 132.616 204.831 133.992 202.829C134.368 202.203 134.869 201.702 135.494 201.327C136.871 200.326 138.748 199.825 140.501 199.825C141.126 199.825 141.877 199.95 142.503 200.075C142.879 200.201 143.379 200.326 143.755 200.451V183.43Z" fill="#BAC6DD"/>
<path fill-rule="evenodd" clip-rule="evenodd" d="M181.302 154.393V199.824H181.176C180.926 201.201 180.175 202.328 179.049 203.078C176.045 205.081 172.165 205.081 169.287 203.078C167.284 201.827 166.533 199.199 167.785 197.196C168.16 196.57 168.661 196.07 169.287 195.694C170.663 194.693 172.415 194.192 174.168 194.192C175.294 194.192 176.295 194.317 177.297 194.818V164.155L161.527 166.783C163.404 163.654 164.906 160.4 166.032 156.896L180.801 154.518L181.302 154.393Z" fill="#BAC6DD"/>
<path fill-rule="evenodd" clip-rule="evenodd" d="M130.864 99.199C128.36 98.8236 125.732 98.5732 123.104 98.5732C117.597 98.5732 112.215 99.5745 107.334 101.452C107.96 102.453 109.211 102.954 110.463 102.829H116.22V108.461C116.471 109.837 117.597 110.839 118.974 111.089C120.726 111.339 122.353 110.213 122.603 108.461V102.829H128.235C129.612 102.578 130.613 101.577 130.864 100.2C130.864 99.8248 130.864 99.4493 130.864 99.199ZM144.881 104.205H139.875C137.747 113.217 129.737 119.474 120.601 119.474C111.214 119.474 103.454 112.966 101.327 104.33C87.5594 111.965 78.2979 126.733 78.2979 143.63C78.2979 168.411 98.448 188.561 123.229 188.561C130.738 188.561 137.747 186.683 143.88 183.554V160.651L144.13 160.526L166.033 156.896C167.409 152.641 168.035 148.135 168.035 143.504C168.16 126.608 158.773 111.84 144.881 104.205ZM132.24 152.516C129.987 154.768 126.733 156.27 123.229 156.27C116.22 156.27 110.463 150.513 110.463 143.504C110.463 136.496 116.22 130.738 123.229 130.738C130.238 130.738 135.995 136.496 135.995 143.504C135.87 147.009 134.493 150.263 132.24 152.516ZM147.76 181.176C153.392 177.547 158.148 172.541 161.652 166.784L147.76 169.036V181.176Z" fill="#1677FF"/>
<path fill-rule="evenodd" clip-rule="evenodd" d="M166.158 156.771C165.031 160.4 163.404 163.779 161.527 166.908L147.76 169.036V181.301C146.508 182.052 145.131 182.803 143.755 183.554V160.4L144.005 160.275L166.158 156.771Z" fill="#1162E8"/>
<path d="M202.453 95.0689C200.325 86.1828 192.315 79.7998 183.179 79.7998H120.476C109.587 79.7998 100.701 88.6859 100.701 99.5745C100.701 101.202 100.951 102.829 101.327 104.33C103.329 103.204 105.332 102.328 107.459 101.452C107.209 101.076 106.959 100.576 106.959 100.2C106.708 98.4481 107.835 96.8211 109.587 96.5708C109.963 96.5708 110.213 96.5708 110.588 96.5708H116.22V90.8136C116.471 89.0614 118.098 87.935 119.85 88.1853C121.227 88.4356 122.228 89.4368 122.478 90.8136V96.4456H128.235C129.737 96.6959 130.738 97.8223 130.864 99.1991C135.87 100.075 140.626 101.827 144.881 104.205L163.905 104.08C166.408 114.718 177.046 121.352 187.685 118.849C198.448 116.345 204.956 105.707 202.453 95.0689ZM177.172 102.829C175.419 104.581 172.666 104.456 170.914 102.829C169.162 101.076 169.162 98.323 170.914 96.5708C172.666 94.8186 175.419 94.8186 177.046 96.5708C178.924 98.1978 178.924 100.951 177.172 102.829ZM186.433 111.965C184.681 113.717 181.927 113.592 180.175 111.965C178.423 110.213 178.423 107.459 180.175 105.707C181.927 104.08 184.681 104.08 186.308 105.707C188.06 107.459 188.06 110.213 186.433 111.965ZM186.308 93.4419C184.681 95.194 181.802 95.194 180.175 93.4419C178.548 91.6897 178.423 88.9362 180.175 87.184C181.927 85.4318 184.681 85.4318 186.308 87.184C188.06 89.0614 188.06 91.8148 186.308 93.4419ZM195.57 102.829C193.817 104.581 191.064 104.581 189.312 102.829C187.56 101.076 187.56 98.323 189.312 96.5708C191.064 94.8186 193.817 94.8186 195.57 96.5708C197.322 98.1978 197.322 100.951 195.57 102.829Z" fill="#00B6FF"/>
<path d="M144.881 104.205L139.875 104.331C137.747 113.342 129.737 119.475 120.601 119.475C111.214 119.475 103.454 112.966 101.327 104.331C103.329 103.204 105.332 102.328 107.459 101.452C108.085 102.453 109.337 102.954 110.588 102.829H116.345V108.461C116.596 109.838 117.597 110.839 118.974 111.089C120.726 111.339 122.353 110.213 122.603 108.461V102.829H128.235C129.612 102.578 130.613 101.577 130.864 100.2C130.864 99.9502 130.864 99.5747 130.864 99.1992C135.745 99.9502 140.501 101.828 144.881 104.205Z" fill="#0056FF"/>
<path d="M208.586 99.6996C207.585 99.6996 206.834 98.9487 206.834 97.9475C206.834 85.9324 197.071 76.2954 185.182 76.2954C184.18 76.4206 183.429 75.6696 183.304 74.6684C183.179 73.6671 183.93 72.9162 184.931 72.791C185.056 72.791 185.182 72.791 185.182 72.791C199.074 72.791 210.338 84.0551 210.338 97.9475C210.338 98.9487 209.587 99.6996 208.586 99.6996Z" fill="#00B6FF"/>
<path d="M95.5695 99.6996C94.5682 99.6996 93.8173 98.9487 93.8173 97.9474C93.8173 84.0551 105.081 72.791 118.974 72.791C119.975 72.6658 120.726 73.4168 120.851 74.418C120.976 75.4193 120.225 76.1702 119.224 76.2954C119.099 76.2954 118.974 76.2954 118.974 76.2954C107.084 76.2954 97.3216 86.0576 97.3216 97.9474C97.3216 98.9487 96.5707 99.6996 95.5695 99.6996Z" fill="#00B6FF"/>
</g>
<defs>
<clipPath id="clip0_5_7490">
<rect width="200" height="200" fill="white" transform="translate(40 40)"/>
</clipPath>
</defs>
</svg>
