<svg viewBox="0 0 280 280" fill="none" xmlns="http://www.w3.org/2000/svg">
<mask id="mask0_5_2872" style="mask-type:alpha" maskUnits="userSpaceOnUse" x="0" y="0" width="280" height="280">
<rect width="280" height="280" rx="22" fill="#F5F5F5"/>
</mask>
<g mask="url(#mask0_5_2872)">
</g>
<g clip-path="url(#clip0_5_2872)">
<path d="M121.602 108.335H86.9337V144.881H121.602C125.857 144.881 129.362 141.376 129.362 137.121V116.22C129.362 111.839 125.857 108.335 121.602 108.335ZM93.5669 111.839C92.816 111.839 92.1902 111.214 92.1902 110.463C92.1902 109.712 92.816 109.086 93.5669 109.086C94.3179 109.086 94.9437 109.712 94.9437 110.463C94.9437 111.214 94.3179 111.839 93.5669 111.839ZM97.8223 111.839C97.0713 111.839 96.4455 111.214 96.4455 110.463C96.4455 109.712 97.0713 109.086 97.8223 109.086C98.5732 109.086 99.199 109.712 99.199 110.463C99.199 111.214 98.5732 111.839 97.8223 111.839ZM102.203 111.839C101.452 111.839 100.826 111.214 100.826 110.463C100.826 109.712 101.452 109.086 102.203 109.086C102.954 109.086 103.579 109.712 103.579 110.463C103.579 111.214 102.954 111.839 102.203 111.839Z" fill="#0056FF"/>
<path d="M91.3141 122.103H100.701C101.202 122.103 101.577 122.478 101.577 122.979C101.577 123.479 101.202 123.855 100.701 123.855H91.3141C90.8135 123.855 90.438 123.479 90.438 122.979C90.438 122.478 90.8135 122.103 91.3141 122.103Z" fill="white"/>
<path d="M152.015 120.851C147.635 120.851 144.255 117.347 144.255 113.091V104.831H89.4368C88.0601 104.831 86.9337 105.957 86.9337 107.334V108.461H121.602C125.857 108.461 129.362 111.965 129.362 116.22V137.121C129.362 141.502 125.857 144.881 121.602 144.881H86.9337V176.045C86.9337 177.422 88.0601 178.548 89.4368 178.548H177.171C178.298 170.538 184.681 164.155 192.816 163.154V120.851H152.015Z" fill="#1677FF"/>
<path d="M70.5381 108.335H86.9336V144.881H70.5381C66.1577 144.881 62.7784 141.376 62.7784 137.121V116.22C62.7784 111.839 66.2828 108.335 70.5381 108.335Z" fill="#00B6FF"/>
<path d="M93.567 111.839C94.3273 111.839 94.9437 111.223 94.9437 110.463C94.9437 109.702 94.3273 109.086 93.567 109.086C92.8066 109.086 92.1902 109.702 92.1902 110.463C92.1902 111.223 92.8066 111.839 93.567 111.839Z" fill="#02ABFF"/>
<path d="M97.8223 111.839C98.5826 111.839 99.199 111.223 99.199 110.463C99.199 109.702 98.5826 109.086 97.8223 109.086C97.0619 109.086 96.4456 109.702 96.4456 110.463C96.4456 111.223 97.0619 111.839 97.8223 111.839Z" fill="#02ABFF"/>
<path d="M103.579 110.463C103.579 111.214 102.954 111.839 102.203 111.839C101.452 111.839 100.826 111.214 100.826 110.463C100.826 109.712 101.452 109.086 102.203 109.086C102.954 109.086 103.579 109.712 103.579 110.463Z" fill="#02ABFF"/>
<path d="M96.3204 128.611C95.3191 128.611 94.3179 128.235 93.5669 127.484C92.816 128.235 91.9399 128.611 90.9387 128.611C88.9362 128.611 87.184 127.109 87.184 124.981C87.184 124.856 87.184 124.731 88.1852 119.975C88.3104 118.598 89.4368 117.472 90.9387 117.472H101.201C102.578 117.472 103.83 118.598 103.955 119.975C104.956 124.731 104.956 124.731 104.956 124.981C104.956 126.858 103.454 128.485 101.577 128.611H101.452C100.451 128.611 99.5744 128.235 98.9487 127.484C98.1977 128.235 97.3216 128.611 96.3204 128.611ZM92.816 125.482H94.1927L94.443 125.982C94.8185 126.608 95.5694 126.984 96.3204 126.858C97.0713 126.858 97.6971 126.483 98.0726 125.857L98.3229 125.482H99.6996L99.9499 125.857C100.2 126.483 100.826 126.858 101.452 126.858C101.952 126.858 102.328 126.608 102.703 126.358C103.079 125.982 103.204 125.607 103.204 125.106C103.204 124.856 102.829 123.229 102.203 120.35V120.1C102.203 119.599 101.702 119.099 101.201 119.224H90.9387C90.438 119.224 89.9374 119.599 89.9374 120.1V120.225C89.1865 123.729 88.9361 124.731 88.9361 124.981C88.9361 125.982 89.8122 126.858 90.9387 126.858C91.6896 126.858 92.3154 126.483 92.6908 125.982L92.816 125.482ZM102.954 135.619H89.1865C88.6858 135.619 88.3104 135.244 88.3104 134.743V129.487C88.3104 128.986 88.6858 128.611 89.1865 128.611C89.6871 128.611 90.0626 128.986 90.0626 129.487V133.867H102.078V129.612C102.078 129.111 102.453 128.736 102.954 128.736C103.454 128.736 103.83 129.111 103.83 129.612V134.868C103.83 135.244 103.454 135.619 102.954 135.619Z" fill="white"/>
<path d="M129.988 145.632H167.034C170.163 145.632 172.666 148.135 172.666 151.264V166.408C172.666 169.537 170.163 172.04 167.034 172.04H129.988C126.859 172.04 124.355 169.537 124.355 166.408V151.264C124.355 148.135 126.859 145.632 129.988 145.632Z" fill="#1162E8"/>
<path d="M148.636 160.401C147.885 160.401 147.134 160.15 146.633 159.65C146.133 160.15 145.382 160.401 144.756 160.401C143.254 160.401 142.128 159.274 142.003 157.773C142.003 157.647 142.003 157.647 142.753 154.143C142.879 153.142 143.63 152.266 144.756 152.266H152.265C153.267 152.266 154.143 153.017 154.268 154.143C154.643 155.395 154.894 156.521 155.019 157.773C155.019 159.149 154.018 160.276 152.641 160.401C152.641 160.401 152.641 160.401 152.516 160.401C151.89 160.401 151.139 160.15 150.763 159.65C150.263 160.025 149.512 160.276 148.636 160.401ZM146.133 158.023H147.134L147.259 158.398C147.509 158.774 148.01 159.149 148.511 159.024C149.011 159.024 149.512 158.774 149.762 158.273L150.013 158.023H151.014L151.139 158.273C151.389 158.649 151.765 159.024 152.265 158.899C152.641 158.899 153.016 158.774 153.267 158.523C153.517 158.273 153.642 157.898 153.642 157.522C153.642 157.272 153.392 156.145 152.891 154.143V154.018C152.891 153.642 152.516 153.392 152.14 153.392H144.631C144.255 153.392 143.88 153.642 143.88 154.018V154.143C143.379 156.646 143.129 157.397 143.129 157.522C143.129 158.273 143.755 158.899 144.506 158.899C145.006 158.899 145.507 158.649 145.757 158.148L146.133 158.023ZM153.517 165.407H143.504C143.129 165.407 142.879 165.157 142.879 164.781V161.027C142.879 160.651 143.129 160.401 143.504 160.401C143.88 160.401 144.13 160.651 144.13 161.027V164.155H152.891V160.901C152.891 160.526 153.141 160.276 153.517 160.276C153.892 160.276 154.143 160.526 154.143 160.901V164.656C154.143 165.157 153.892 165.407 153.517 165.407Z" fill="white"/>
<path d="M145.131 155.52H151.765C152.14 155.52 152.39 155.77 152.39 156.145C152.39 156.396 152.265 156.771 151.89 156.771H151.765H145.131C144.881 156.771 144.506 156.646 144.506 156.27V156.145C144.506 155.77 144.756 155.52 145.131 155.52Z" fill="white"/>
<path d="M192.816 107.209V120.851H152.015C147.635 120.851 144.255 117.346 144.255 113.091V104.831H190.313C191.69 104.706 192.816 105.832 192.816 107.209Z" fill="#1162E8"/>
<path d="M210.713 92.3154V113.216C210.713 117.597 207.209 120.976 202.954 120.976H192.816V107.334C192.816 105.957 191.69 104.831 190.313 104.831H144.13V92.3154C144.13 87.9349 147.635 84.5557 151.89 84.5557H202.829C207.209 84.5557 210.713 88.06 210.713 92.3154Z" fill="#BAC6DD"/>
<path d="M177.797 104.706C176.796 104.706 175.795 104.331 175.044 103.58C174.293 104.331 173.417 104.706 172.416 104.706C170.413 104.706 168.786 103.204 168.661 101.202C168.661 101.202 168.661 101.202 168.661 101.077C168.661 100.952 168.661 100.826 169.662 96.0705C169.787 94.6938 170.914 93.5674 172.416 93.5674H182.804C184.18 93.5674 185.432 94.6938 185.557 96.0705C186.558 100.826 186.558 100.826 186.558 101.077C186.558 102.954 185.056 104.581 183.179 104.706H183.054C182.053 104.706 181.176 104.331 180.551 103.58C179.675 104.206 178.798 104.706 177.797 104.706ZM174.293 101.577H175.67L175.92 102.078C176.295 102.704 177.046 103.079 177.797 103.079C178.548 103.079 179.174 102.704 179.549 102.078L179.8 101.703H181.176L181.427 102.078C181.677 102.704 182.303 103.079 182.929 103.079C183.429 103.079 183.805 102.829 184.18 102.579C184.556 102.203 184.681 101.828 184.681 101.327C184.681 101.077 184.305 99.4497 183.68 96.5711V96.3208C183.68 95.8202 183.179 95.3196 182.678 95.4447H172.416C171.915 95.4447 171.414 95.8202 171.414 96.3208C170.663 99.8252 170.413 100.826 170.413 101.077C170.413 102.078 171.289 102.954 172.416 102.954C173.166 102.954 173.792 102.579 174.168 101.953L174.293 101.577ZM184.431 111.715H170.663C170.163 111.715 169.787 111.34 169.787 110.839V105.582C169.787 105.082 170.163 104.706 170.663 104.706C171.164 104.706 171.539 105.082 171.539 105.582V109.963H183.554V105.582C183.554 105.082 183.805 104.706 184.305 104.581C184.806 104.456 185.181 104.831 185.307 105.332C185.307 105.457 185.307 105.457 185.307 105.582V110.839C185.181 111.34 184.806 111.715 184.431 111.715Z" fill="white"/>
<path d="M172.916 98.0723H182.053C182.553 98.0723 182.929 98.4477 182.929 98.9484C182.929 99.449 182.553 99.8245 182.053 99.8245H172.916C172.416 99.8245 172.04 99.449 172.04 98.9484C172.04 98.4477 172.416 98.0723 172.916 98.0723Z" fill="white"/>
<path d="M192.816 163.028V175.919C192.816 177.296 191.69 178.423 190.313 178.423H177.171C178.298 170.413 184.806 164.03 192.816 163.028Z" fill="#0056FF"/>
<path d="M212.841 180.801C212.841 190.688 204.831 198.698 194.944 198.698C185.056 198.698 177.046 190.688 177.046 180.801C177.046 179.925 177.046 179.174 177.171 178.423H190.313C191.69 178.423 192.816 177.296 192.816 175.92V163.028C193.567 162.903 194.193 162.903 194.944 162.903C204.831 162.903 212.841 170.913 212.841 180.801Z" fill="#00B6FF"/>
<path d="M192.941 189.562C191.815 190.813 189.937 190.813 188.686 189.687L183.054 184.305C182.178 183.554 182.178 182.178 182.929 181.427C183.68 180.551 185.056 180.551 185.807 181.302L189.812 185.056C190.313 185.557 191.064 185.557 191.564 185.056L204.205 171.915C204.956 171.039 206.333 171.039 207.209 171.79C207.96 172.541 208.085 173.917 207.209 174.668L192.941 189.562Z" fill="white"/>
</g>
<defs>
<clipPath id="clip0_5_2872">
<rect width="200" height="200" fill="white" transform="translate(40 40)"/>
</clipPath>
</defs>
</svg>
